<?xml version="1.0" standalone="no"?>
<!DOCTYPE svg PUBLIC "-//W3C//DTD SVG 20010904//EN"
 "http://www.w3.org/TR/2001/REC-SVG-20010904/DTD/svg10.dtd">
<svg version="1.0" xmlns="http://www.w3.org/2000/svg"
 width="2000.000000pt" height="1000.000000pt" viewBox="0 0 2000.000000 1000.000000"
 preserveAspectRatio="xMidYMid meet">

<g transform="translate(0.000000,1000.000000) scale(0.100000,-0.100000)"
fill="#000000" stroke="none">
<path d="M4075 8324 c-353 -27 -607 -77 -890 -174 -480 -166 -888 -424 -1252
-792 -272 -275 -453 -528 -623 -873 -119 -242 -247 -593 -224 -615 5 -4 34
-16 64 -25 30 -10 60 -20 66 -22 7 -3 20 25 33 69 92 311 234 613 417 885 123
183 222 302 394 473 250 249 492 424 800 579 332 166 635 258 1017 307 156 21
541 23 688 5 378 -46 689 -135 1003 -287 146 -70 336 -177 347 -194 5 -8 -116
-223 -139 -247 -8 -9 -30 0 -91 39 -111 69 -358 189 -492 237 -332 120 -719
182 -1053 167 -160 -7 -319 -24 -335 -37 -7 -5 -7 -33 -1 -84 l10 -77 66 7
c129 14 221 21 225 16 3 -2 5 -75 5 -161 l0 -156 -120 -12 c-658 -66 -1282
-440 -1658 -995 -105 -155 -103 -139 -21 -182 39 -20 72 -35 73 -33 2 1 28 41
59 88 163 247 410 487 660 642 250 156 529 258 832 304 150 23 451 23 600 0
628 -97 1167 -444 1509 -974 26 -40 49 -72 51 -72 16 0 135 67 135 76 0 17
-131 209 -207 304 -306 380 -751 666 -1222 785 -161 40 -267 55 -481 69 l-55
3 -3 163 -3 162 113 -7 c383 -23 702 -108 1040 -277 262 -131 480 -289 688
-497 415 -417 670 -928 762 -1526 28 -187 31 -550 4 -729 -50 -345 -128 -594
-277 -887 -155 -305 -371 -581 -630 -803 -147 -126 -194 -159 -207 -143 -5 6
-37 62 -72 122 -34 61 -70 118 -78 128 -14 16 -14 19 8 34 160 112 502 467
487 506 -3 7 -31 33 -62 57 l-58 45 -16 -25 c-9 -14 -55 -70 -102 -125 -327
-382 -783 -636 -1298 -722 -149 -25 -503 -25 -652 0 -400 67 -754 229 -1060
486 -107 89 -234 221 -307 317 -26 35 -51 63 -57 63 -14 0 -118 -72 -122 -85
-6 -17 92 -138 206 -257 307 -319 676 -537 1085 -642 185 -47 315 -65 516 -72
417 -13 819 84 1182 287 59 33 109 60 111 60 6 0 169 -282 165 -284 -2 0 -14
-7 -28 -15 -14 -8 -58 -32 -97 -54 -40 -21 -73 -43 -73 -48 0 -18 65 -139 75
-139 17 0 206 112 312 185 152 105 286 220 429 367 437 451 702 1011 785 1663
19 149 16 541 -5 695 -73 529 -270 999 -596 1420 -89 115 -335 363 -445 450
-44 34 -81 63 -83 65 -1 1 32 61 74 134 l76 131 67 -52 c36 -28 85 -67 107
-85 l42 -34 41 65 c23 36 41 70 41 75 0 5 -44 44 -97 87 -477 376 -1039 609
-1643 679 -125 15 -442 26 -535 19z"/>
<path d="M3220 7667 c-14 -6 -74 -32 -133 -59 -290 -128 -580 -330 -822 -573
-471 -470 -759 -1084 -826 -1752 l-12 -123 -150 0 -150 0 7 103 c4 56 13 139
20 185 8 52 9 85 3 89 -6 3 -39 11 -74 18 -56 11 -65 10 -72 -4 -22 -41 -45
-323 -45 -556 0 -258 15 -414 60 -646 253 -1307 1269 -2345 2556 -2609 241
-50 388 -64 658 -64 270 0 417 14 658 64 1105 227 2028 1031 2418 2107 87 241
145 490 180 768 24 191 24 567 0 765 -81 682 -345 1285 -796 1819 l-20 23 -65
-42 c-36 -23 -65 -47 -65 -52 0 -6 24 -38 53 -71 402 -463 665 -1079 739
-1732 18 -158 15 -530 -6 -695 -100 -808 -477 -1521 -1081 -2040 -813 -698
-1938 -929 -2946 -604 -795 256 -1450 810 -1830 1549 -217 420 -327 836 -355
1343 l-7 122 157 0 156 0 0 -98 c0 -282 80 -667 203 -973 497 -1235 1773
-1958 3067 -1738 101 17 371 82 390 94 8 5 -21 149 -31 160 -4 3 -45 -5 -90
-19 -455 -137 -983 -138 -1460 -1 -937 269 -1664 1056 -1863 2014 -45 217 -51
284 -51 566 0 274 6 346 46 545 81 397 277 817 534 1140 265 334 668 639 1050
795 50 20 94 41 99 45 5 5 -4 40 -19 79 -28 75 -36 80 -85 58z"/>
<path d="M4200 6813 c-83 -48 -79 -39 -82 -203 l-3 -147 -84 49 c-46 26 -90
48 -98 48 -8 0 -39 -15 -69 -32 l-55 -33 3 -74 3 -74 150 -86 150 -86 3 -52 3
-53 -70 40 c-39 22 -78 40 -87 40 -30 0 -114 -53 -120 -75 -3 -11 -4 -47 -2
-79 l3 -58 55 -30 c71 -38 78 -46 54 -54 -10 -4 -81 -43 -156 -86 -75 -43
-142 -78 -148 -78 -8 0 -11 21 -10 63 1 34 2 67 1 74 -1 13 -95 73 -116 73
-15 0 -80 -35 -107 -58 -15 -12 -18 -31 -18 -99 0 -45 -3 -83 -6 -83 -4 0 -24
10 -45 22 l-39 21 -2 184 -3 184 -58 32 -58 32 -57 -32 -57 -31 -10 -111 -10
-111 -129 75 c-71 41 -130 75 -132 75 -1 0 -30 -16 -64 -36 l-61 -35 3 -77 3
-77 127 -75 c124 -73 145 -90 112 -90 -9 0 -36 -13 -61 -30 -24 -16 -47 -30
-51 -30 -4 -1 -17 -9 -29 -19 -20 -17 -23 -29 -23 -90 l0 -71 120 0 c129 0
121 -3 252 76 l56 34 41 -21 c54 -28 57 -34 21 -49 -17 -7 -30 -19 -30 -26 0
-12 163 -14 1040 -14 877 0 1040 2 1040 14 0 7 -13 19 -30 26 -35 15 -33 21
20 49 l40 21 93 -55 94 -55 121 0 122 0 0 73 0 73 -79 47 c-43 26 -84 47 -90
47 -34 0 10 31 164 115 83 46 85 49 85 131 l0 73 -61 36 -61 36 -92 -52 c-179
-102 -176 -101 -181 -87 -3 7 -6 57 -7 111 l-3 99 -57 31 -57 32 -37 -20 c-88
-47 -84 -35 -84 -234 l0 -177 -39 -22 c-21 -12 -41 -22 -45 -22 -3 0 -6 38 -6
83 0 92 -1 94 -73 135 -49 28 -57 28 -117 -9 -54 -33 -67 -58 -56 -110 3 -17
3 -41 0 -54 l-6 -24 -64 40 c-35 21 -66 39 -69 39 -3 0 -35 18 -71 41 -37 22
-78 45 -92 50 -30 11 -25 17 43 55 28 15 53 32 57 38 4 6 8 38 8 71 0 33 -4
65 -8 71 -13 19 -91 64 -112 64 -11 0 -52 -18 -91 -40 l-70 -40 3 52 3 53 150
86 150 86 3 68 c2 40 -2 72 -8 81 -15 17 -99 64 -115 64 -8 0 -52 -22 -99 -50
l-86 -49 0 148 c0 128 -2 150 -17 163 -18 15 -106 68 -114 68 -2 0 -24 -12
-49 -27z"/>
<path d="M13870 6000 l0 -820 215 0 215 0 2 392 3 393 415 -403 414 -402 68 0
68 0 0 820 0 820 -215 0 -215 0 -2 -390 -3 -389 -414 399 -414 400 -68 0 -69
0 0 -820z"/>
<path d="M8610 5995 l0 -815 210 0 210 0 2 298 3 297 258 3 257 2 0 180 0 180
-260 0 -260 0 0 130 0 130 315 0 315 0 0 205 0 205 -525 0 -525 0 0 -815z"/>
<path d="M10260 5990 l0 -810 215 0 215 0 0 265 0 266 100 -3 100 -3 120 -260
120 -260 225 -3 c124 -1 225 0 225 4 0 3 -73 141 -161 306 -89 164 -160 300
-158 302 100 72 186 187 219 292 24 79 27 222 6 300 -38 142 -150 275 -289
344 -131 65 -172 70 -579 70 l-358 0 0 -810z m718 399 c26 -13 54 -38 70 -61
56 -86 23 -201 -70 -247 -38 -18 -62 -21 -166 -21 l-122 0 0 175 0 175 122 0
c104 0 128 -3 166 -21z"/>
<path d="M12160 5990 l0 -810 525 0 525 0 0 200 0 200 -312 2 -313 3 0 115 0
115 258 3 257 2 0 175 0 175 -257 2 -258 3 -3 113 -3 112 316 0 315 0 0 200 0
200 -525 0 -525 0 0 -810z"/>
<path d="M15900 6600 l0 -200 271 0 c213 0 270 -3 266 -12 -3 -7 -122 -273
-266 -591 -143 -318 -263 -587 -266 -597 -6 -20 3 -20 604 -20 l611 0 0 200 0
200 -271 0 c-254 0 -271 1 -266 18 2 9 118 269 257 577 139 308 259 575 266
593 l14 32 -610 0 -610 0 0 -200z"/>
<path d="M17668 6728 c22 -40 135 -248 251 -461 l211 -389 0 -349 0 -349 215
0 215 0 0 351 0 351 226 417 c124 229 237 435 250 459 l25 42 -246 0 -246 0
-113 -232 -113 -233 -50 105 c-28 58 -78 162 -112 233 l-60 127 -246 0 -246 0
39 -72z"/>
<path d="M2554 5318 l-27 -33 7 -265 c6 -251 8 -266 28 -287 22 -23 76 -31
113 -17 30 12 45 60 45 142 l0 80 80 4 c69 3 83 6 105 28 35 36 26 87 -28 140
l-40 40 -63 -6 -64 -7 0 27 0 26 143 0 c158 1 174 6 186 62 9 41 -4 72 -36 87
-15 7 -98 11 -223 11 l-198 0 -28 -32z m76 -28 c0 -5 -4 -10 -10 -10 -5 0 -10
5 -10 10 0 6 5 10 10 10 6 0 10 -4 10 -10z m-40 -150 c0 -5 -7 -10 -15 -10 -8
0 -15 5 -15 10 0 6 7 10 15 10 8 0 15 -4 15 -10z m176 -25 c13 -1 27 2 30 6 9
15 40 10 58 -10 16 -17 16 -19 -6 -25 -40 -10 -102 -6 -122 9 -18 14 -14 41 5
29 6 -3 21 -7 35 -9z"/>
<path d="M3108 5319 l-31 -31 7 -261 c7 -305 9 -310 89 -315 39 -3 51 1 72 22
20 20 25 35 25 76 l0 50 58 0 c58 0 59 -1 90 -43 64 -90 86 -107 136 -107 94
0 115 72 47 158 l-40 50 21 18 c38 35 51 75 52 159 0 90 -11 120 -66 171 -67
63 -146 84 -326 84 -102 0 -104 0 -134 -31z m236 -140 c34 -6 68 -16 77 -22
26 -20 38 -51 28 -70 -12 -21 -35 -22 -43 -2 -11 29 -116 15 -138 -19 -4 -6
-8 19 -8 57 0 75 -5 72 84 56z m34 -102 c6 0 12 -4 12 -8 0 -4 9 -11 20 -14
32 -10 23 -33 -15 -41 -41 -7 -145 4 -145 16 0 14 84 60 100 53 8 -3 21 -6 28
-6z m-158 -287 c0 -5 -7 -10 -15 -10 -8 0 -15 5 -15 10 0 6 7 10 15 10 8 0 15
-4 15 -10z"/>
<path d="M3753 5340 c-12 -5 -27 -18 -33 -30 -14 -27 -14 -509 1 -547 19 -51
27 -52 275 -53 218 0 231 1 252 20 12 12 22 27 22 35 0 7 3 20 6 29 4 10 -6
27 -24 46 -27 27 -37 30 -92 30 -55 0 -65 3 -92 30 -23 24 -38 30 -71 30 -23
0 -54 -6 -69 -14 -23 -12 -27 -12 -33 1 -3 9 -4 18 -2 20 2 2 42 5 87 7 76 3
86 6 107 30 36 42 28 78 -32 139 l-36 37 -65 -6 -64 -7 0 27 0 26 139 0 c125
0 141 2 165 21 32 25 35 75 7 110 -19 24 -22 24 -223 26 -111 1 -213 -2 -225
-7z m72 -160 c3 -5 -1 -10 -10 -10 -9 0 -13 5 -10 10 3 6 8 10 10 10 2 0 7 -4
10 -10z m88 -57 c10 -9 58 -10 63 -1 9 14 34 9 55 -11 20 -18 20 -18 -3 -25
-48 -12 -114 -7 -131 12 -20 22 -4 46 16 25z m111 -217 c37 -16 53 -33 40 -46
-12 -12 -100 -13 -143 -3 l-34 8 39 27 c46 31 54 33 98 14z m-134 -126 c0 -5
-7 -10 -15 -10 -8 0 -15 5 -15 10 0 6 7 10 15 10 8 0 15 -4 15 -10z"/>
<path d="M4340 5330 c-18 -18 -20 -33 -20 -142 0 -68 3 -194 7 -282 7 -182 13
-196 88 -196 74 0 79 10 85 166 l5 138 89 -119 c131 -176 140 -185 198 -185
35 0 54 6 68 20 19 19 20 33 20 275 0 272 -6 311 -48 334 -34 18 -79 13 -109
-13 -26 -22 -28 -31 -31 -109 l-4 -84 -39 7 c-22 4 -45 15 -52 23 -7 9 -37 50
-67 91 -30 41 -65 79 -78 85 -37 18 -90 13 -112 -9z m50 -90 c0 -5 -7 -10 -15
-10 -8 0 -15 5 -15 10 0 6 7 10 15 10 8 0 15 -4 15 -10z m299 -147 c14 -15 26
-38 26 -50 1 -24 -9 -30 -20 -13 -3 6 -15 10 -25 10 -12 0 -20 8 -22 23 -2 12
-13 26 -25 32 -13 5 -23 15 -23 22 0 22 62 5 89 -24z"/>
<path d="M4973 5340 c-25 -10 -43 -39 -43 -70 0 -27 52 -80 79 -80 11 0 24 -8
30 -17 7 -14 23 -18 64 -18 55 0 81 -10 61 -23 -14 -9 -114 -161 -114 -174 0
-5 -17 -35 -38 -66 -22 -31 -42 -69 -46 -85 -7 -31 14 -81 39 -91 9 -3 112 -6
229 -6 208 0 213 1 233 23 30 33 36 62 19 95 -16 30 -34 42 -65 42 -9 0 -30
13 -45 29 -32 33 -90 49 -112 30 -22 -18 -17 -2 14 44 15 23 28 48 30 55 1 7
31 57 67 110 74 110 82 146 40 187 -24 25 -25 25 -222 24 -109 0 -208 -4 -220
-9z m221 -132 c17 -18 22 -33 7 -23 -5 3 -12 1 -16 -5 -8 -13 -42 -13 -47 0
-2 6 -16 6 -41 -1 -49 -13 -57 -6 -24 25 31 28 94 30 121 4z m136 -58 c0 -5
-7 -10 -15 -10 -8 0 -15 5 -15 10 0 6 7 10 15 10 8 0 15 -4 15 -10z m28 -258
c34 -22 22 -36 -39 -43 -63 -7 -148 13 -114 26 11 5 22 11 25 14 27 32 82 33
128 3z m-287 -75 c-13 -13 -26 -3 -16 12 3 6 11 8 17 5 6 -4 6 -10 -1 -17z"/>
<path d="M5580 5344 c-26 -11 -40 -37 -40 -74 0 -30 16 -59 95 -166 l95 -129
0 -108 c0 -101 2 -109 25 -132 34 -35 112 -35 143 -2 20 21 22 34 22 133 0 80
4 115 15 130 8 12 13 23 10 25 -2 2 30 51 71 109 83 119 92 153 49 195 -18 19
-35 25 -66 25 -38 0 -48 -5 -86 -46 -24 -26 -43 -51 -43 -55 0 -17 -36 -9 -53
11 -10 12 -29 20 -49 20 -23 0 -38 8 -57 31 -21 24 -36 32 -71 35 -25 2 -52 1
-60 -2z m237 -112 c26 -24 42 -79 18 -64 -5 4 -19 7 -30 7 -13 0 -20 7 -20 19
0 12 -13 26 -32 35 -42 21 -41 29 2 29 23 0 43 -8 62 -26z m113 -132 c0 -5 -7
-10 -15 -10 -8 0 -15 5 -15 10 0 6 7 10 15 10 8 0 15 -4 15 -10z"/>
<path d="M2770 4660 c-4 -3 -7 -41 -6 -85 l1 -80 94 -57 93 -57 -35 -14 c-63
-27 -225 -126 -231 -143 -10 -25 -7 -113 4 -134 5 -10 34 -33 64 -50 l55 -31
40 26 c22 14 43 25 45 25 2 0 42 23 89 50 47 28 88 50 91 50 3 0 6 -49 6 -108
l0 -108 56 -32 c31 -18 60 -32 65 -32 5 0 34 14 64 31 l55 31 0 182 0 182 40
23 c22 12 43 21 47 19 4 -2 9 -39 11 -83 1 -44 4 -84 6 -90 2 -5 29 -23 60
-40 l56 -30 52 29 c29 16 56 34 60 40 4 6 8 44 8 84 0 72 7 85 30 57 7 -8 16
-15 21 -15 5 0 28 -12 52 -27 42 -28 70 -44 165 -97 29 -16 52 -32 52 -35 0
-3 -18 -14 -39 -24 -73 -33 -88 -51 -90 -104 -2 -83 4 -95 68 -130 l59 -31 78
44 c42 24 79 44 81 44 2 0 3 -22 3 -49 l0 -50 -155 -87 -155 -88 0 -77 0 -78
54 -30 c29 -17 58 -31 64 -31 6 0 50 23 98 50 48 28 88 50 90 50 2 0 4 -69 4
-154 l0 -154 38 -22 c51 -31 124 -31 175 -1 l37 23 0 155 0 155 67 -38 c36
-20 79 -44 95 -53 27 -15 31 -15 86 16 l57 31 0 78 0 78 -105 62 c-58 35 -126
73 -152 86 l-48 23 0 53 0 53 58 -32 c31 -18 67 -39 79 -46 20 -14 27 -12 83
22 l60 36 0 75 0 74 -47 30 c-27 16 -56 30 -65 30 -10 0 -18 5 -18 10 0 6 4
10 9 10 6 0 78 41 162 90 83 50 153 90 155 90 2 0 4 -36 4 -79 l0 -80 54 -30
c29 -17 59 -31 67 -31 7 0 37 14 66 32 l53 32 0 93 c0 92 6 107 30 78 7 -8 18
-15 25 -15 6 0 20 -9 29 -19 16 -17 17 -36 10 -189 l-7 -170 57 -36 c31 -20
63 -36 72 -36 8 0 39 16 69 35 l55 35 0 105 c0 58 3 105 6 105 3 0 47 -24 97
-54 51 -29 109 -63 129 -75 l38 -21 47 26 c72 40 75 44 76 121 0 69 -6 93 -23
93 -5 0 -51 25 -102 56 -50 31 -103 60 -117 65 -23 9 -20 12 50 55 110 68 109
67 109 144 0 38 -5 71 -12 78 -8 8 -49 12 -120 12 -89 0 -108 -3 -108 -15 0
-8 -4 -15 -8 -15 -5 0 -46 -23 -92 -51 l-84 -51 -48 25 c-50 26 -50 28 -3 52
11 6 20 21 20 34 l0 22 -1053 1 c-579 0 -1056 -2 -1059 -6 -3 -3 2 -8 11 -12
9 -3 14 -10 11 -15 -3 -4 13 -18 36 -30 l42 -21 -44 -20 c-58 -26 -82 -20
-182 44 l-82 53 -103 5 c-57 3 -108 3 -112 0z"/>
<path d="M15926 4359 c-94 -13 -235 -61 -325 -112 -88 -50 -227 -177 -283
-260 -119 -175 -168 -384 -139 -585 49 -335 304 -611 646 -697 489 -124 948
122 1055 565 14 62 20 119 20 212 0 69 -3 133 -6 142 -5 14 -52 16 -420 16
l-414 0 0 -160 0 -160 185 0 185 0 0 -22 c-1 -39 -35 -101 -77 -139 -66 -60
-139 -83 -263 -82 -112 0 -179 17 -264 67 -60 35 -143 128 -173 192 -76 167
-47 343 81 482 158 170 400 192 604 56 36 -25 69 -41 73 -37 42 47 228 317
223 324 -13 21 -146 101 -217 130 -150 63 -341 89 -491 68z"/>
<path d="M12835 4344 c-188 -40 -344 -145 -407 -276 -89 -183 -52 -377 98
-517 56 -53 95 -76 269 -161 223 -109 285 -154 285 -206 0 -45 -25 -72 -82
-89 -131 -39 -291 5 -386 106 l-37 38 -125 -122 c-69 -67 -126 -127 -128 -134
-5 -18 52 -96 99 -136 54 -47 157 -100 249 -129 65 -20 95 -23 230 -23 171 0
218 10 339 68 89 43 189 139 229 219 89 178 54 386 -89 529 -64 64 -174 133
-286 179 -40 17 -107 44 -149 61 -41 17 -89 43 -105 56 -81 69 13 164 148 150
66 -7 173 -56 202 -93 l20 -26 125 118 c87 82 122 122 118 133 -12 34 -64 101
-104 136 -56 48 -152 93 -236 110 -61 13 -229 18 -277 9z"/>
<path d="M17540 3530 l0 -820 215 0 215 0 2 392 3 393 415 -403 414 -402 68 0
68 0 0 820 0 820 -215 0 -215 0 -2 -390 -3 -389 -414 399 -414 400 -68 0 -69
0 0 -820z"/>
<path d="M8640 3520 l0 -812 363 5 c384 5 418 9 558 59 203 74 358 219 434
406 82 203 79 507 -9 705 -88 200 -274 350 -514 414 -95 26 -106 27 -464 31
l-368 4 0 -812z m643 395 c222 -47 340 -186 339 -401 -1 -249 -171 -394 -461
-394 l-101 0 0 405 0 405 78 0 c42 0 108 -7 145 -15z"/>
<path d="M10690 3520 l0 -810 525 0 525 0 0 200 0 200 -312 2 -313 3 0 115 0
115 258 3 257 2 0 175 0 175 -257 2 -258 3 -3 113 -3 112 316 0 315 0 0 200 0
200 -525 0 -525 0 0 -810z"/>
<path d="M14120 3520 l0 -810 215 0 215 0 0 810 0 810 -215 0 -215 0 0 -810z"/>
</g>
</svg>
