<?xml version="1.0" encoding="UTF-8"?>
<svg version="1.1" xmlns="http://www.w3.org/2000/svg" width="334" height="209">
<path d="M0 0 C124.7954344 0 124.7954344 0 145.375 15.3125 C156.96808295 27.18160873 160.30229317 39.8287725 160.31469727 55.91137695 C160.12154059 69.16375389 155.76500635 79.19442389 146.39453125 88.62109375 C139.49814743 95 139.49814743 95 137 95 C137 95.66 137 96.32 137 97 C137.73605469 97.26683594 138.47210938 97.53367187 139.23046875 97.80859375 C149.94856779 102.41934157 158.61225177 112.44398911 162.96875 123.0703125 C168.98419667 140.15964962 168.9380565 157.38260788 161.5 174 C155.66654653 184.98993827 146.94502405 193.15007335 136 199 C135.1853125 199.45890625 134.370625 199.9178125 133.53125 200.390625 C127.80091459 203.32653759 121.9421375 204.89254431 115.6875 206.25 C114.94177734 206.41330811 114.19605469 206.57661621 113.42773438 206.74487305 C78.65887593 213.69938576 25.68819455 209 0 209 C0 140.03 0 71.06 0 0 Z M43 44 C43 56.87 43 69.74 43 83 C50.31062331 83.09231233 57.6191878 83.17180925 64.92993164 83.21972656 C67.41177256 83.2397219 69.89356709 83.26692726 72.37524414 83.30175781 C75.96251947 83.35080964 79.54916678 83.37309058 83.13671875 83.390625 C84.22893234 83.41127014 85.32114594 83.43191528 86.44645691 83.45318604 C95.77991406 83.45584599 105.92936042 82.20241904 113.125 75.75 C116.70426215 71.55485484 119.09286829 67.36067136 118.9375 61.73828125 C117.97980392 55.86241678 115.54856605 51.7932067 111 48 C103.37209617 43.63473807 95.93291243 43.4635442 87.3359375 43.609375 C86.06271637 43.61503479 84.78949524 43.62069458 83.47769165 43.62652588 C80.12689809 43.6450023 76.77723918 43.68080246 73.42675781 43.7253418 C69.99424099 43.76659408 66.56160248 43.78482089 63.12890625 43.8046875 C56.41864206 43.84518396 49.71033475 43.92350473 43 44 Z M42 127 C42 139.87 42 152.74 42 166 C49.77444651 166.09215676 57.54697438 166.17170285 65.3215332 166.21972656 C67.96254929 166.23975996 70.60352149 166.26699451 73.24438477 166.30175781 C77.05496091 166.350639 80.86494721 166.37305267 84.67578125 166.390625 C86.4280175 166.42159271 86.4280175 166.42159271 88.21565247 166.45318604 C97.00388667 166.45555599 105.38570968 165.09932537 112.5 159.5625 C116.51962246 155.44238698 118.16723678 152.84524306 118.375 147.0625 C118.18145884 141.83688865 117.17686902 138.28936871 113.48828125 134.41015625 C105.36435182 126.94344358 98.11366028 126.57491362 87.41015625 126.70703125 C86.11049423 126.71127609 84.81083221 126.71552094 83.4717865 126.71989441 C80.03740741 126.73128051 76.60341649 126.7606925 73.16918945 126.79400635 C69.65646712 126.82484291 66.14367943 126.83859365 62.63085938 126.85351562 C55.75356483 126.88397309 48.87733247 126.94270658 42 127 Z " fill="#000000" transform="translate(0,0)"/>
<path d="M0 0 C13.50459925 11.008613 19.65639964 27.03961671 23.8203125 43.44921875 C24.18253906 44.6403125 24.54476562 45.83140625 24.91796875 47.05859375 C26.33507236 52.75781477 26.0715639 58.55178832 26.0078125 64.38671875 C26.0068457 66.10858398 26.0068457 66.10858398 26.00585938 67.86523438 C25.96086775 76.3086635 25.96086775 76.3086635 24.8203125 77.44921875 C23.39084779 77.54476274 21.95668585 77.57110313 20.52403259 77.56947327 C19.59710098 77.57084793 18.67016937 77.5722226 17.71514893 77.57363892 C16.69016296 77.57004364 15.665177 77.56644836 14.60913086 77.56274414 C12.99957268 77.56296318 12.99957268 77.56296318 11.35749817 77.56318665 C7.79169734 77.56248699 4.22594801 77.55469213 0.66015625 77.546875 C-1.80464143 77.54501101 -4.26943949 77.54358702 -6.73423767 77.54258728 C-13.23622655 77.53876062 -19.73819325 77.52892907 -26.24017334 77.5178833 C-32.86909567 77.50713623 -39.49802443 77.50309034 -46.12695312 77.49804688 C-59.14454074 77.48730694 -72.16211294 77.47041972 -85.1796875 77.44921875 C-84.91354612 79.49367702 -84.63343209 81.53631868 -84.34765625 83.578125 C-84.19321045 84.71580322 -84.03876465 85.85348145 -83.87963867 87.02563477 C-82.30611598 94.72201032 -78.28731182 101.46057197 -72.03125 106.2421875 C-64.64442764 111.05764765 -56.16319568 114.83129693 -47.1796875 113.44921875 C-38.29899534 111.06460262 -38.29899534 111.06460262 -30.02856445 107.16870117 C-20.33683642 101.71014171 -9.76134561 102.90339139 1.0078125 103.13671875 C3.02926922 103.16183907 5.05075609 103.18464563 7.07226562 103.20507812 C11.9890348 103.25976294 16.90433619 103.34582832 21.8203125 103.44921875 C16.51187173 119.81386996 4.84400679 131.25239169 -10.2265625 139.01953125 C-29.13114589 147.37155619 -50.05829769 147.89978766 -70.1796875 144.44921875 C-71.74203125 144.19011719 -71.74203125 144.19011719 -73.3359375 143.92578125 C-86.75952062 141.14724388 -98.75478398 134.31208247 -108.1796875 124.44921875 C-109.12714844 123.53076172 -109.12714844 123.53076172 -110.09375 122.59375 C-126.18747343 105.96829562 -127.60653014 81.74362912 -127.39453125 59.96875 C-127.10267457 47.36090382 -124.3933027 35.98191484 -119.1796875 24.44921875 C-118.76074219 23.5159375 -118.34179688 22.58265625 -117.91015625 21.62109375 C-109.84508022 5.35148793 -95.77225776 -4.98953652 -79.1796875 -11.55078125 C-52.9100463 -20.16213047 -22.65622709 -16.11921533 0 0 Z M-75.1796875 27.44921875 C-76.02853516 28.238125 -76.02853516 28.238125 -76.89453125 29.04296875 C-82.12913216 34.46954769 -84.1796875 40.97937757 -84.1796875 48.44921875 C-62.0696875 48.44921875 -39.9596875 48.44921875 -17.1796875 48.44921875 C-19.62580988 36.21860687 -21.97713597 29.54522414 -32.1796875 22.44921875 C-35.12358326 21.04505794 -38.00016934 20.15040526 -41.1796875 19.44921875 C-42.695625 19.10890625 -42.695625 19.10890625 -44.2421875 18.76171875 C-55.78242266 17.53403416 -66.53394028 19.24833101 -75.1796875 27.44921875 Z " fill="#000000" transform="translate(308.1796875,62.55078125)"/>
<path d="M0 0 C32.01 0 64.02 0 97 0 C97 8.91 97 17.82 97 27 C64.99 27 32.98 27 0 27 C0 18.09 0 9.18 0 0 Z " fill="#000000" transform="translate(208,1)"/>
</svg>
