<?xml version="1.0" encoding="utf-8"?>
<!-- Generator: Adobe Illustrator 25.4.1, SVG Export Plug-In . SVG Version: 6.00 Build 0)  -->
<svg version="1.1"
	 id="Calque_1" shape-rendering="geometricPrecision" text-rendering="geometricPrecision" image-rendering="optimizeQuality"
	 xmlns="http://www.w3.org/2000/svg" xmlns:xlink="http://www.w3.org/1999/xlink" x="0px" y="0px" viewBox="0 0 512 509.7"
	 style="enable-background:new 0 0 512 509.7;" xml:space="preserve">
<style type="text/css">
	.st0{fill:#999999;}
	.st1{fill:#FFFFFF;}
</style>
<path class="st0" d="M117.2,4.1h278.1c64.3,0,117,52.6,117,117v275.7c0,64.3-52.6,117-117,117H117.2c-64.3,0-117-52.6-117-117V121.1
	C0.3,56.7,52.9,4.1,117.2,4.1z M395.3,9H117.2c-61.6,0-112,50.4-112,112v275.7c0,61.6,50.4,112,112,112h278.1
	c61.6,0,112-50.4,112-112V121.1C507.3,59.4,456.9,9,395.3,9z M0.3,4.1 M0.3,4.1 M0.3,4.1"/>
<g>
	<g>
		<g>
			<path class="st1" d="M103.3,178.7c-0.1,9.3-0.1,18.5-0.1,27.8c-0.2,2.2,1.5,4.1,3.4,5.1c29.1,14.5,58.3,28.9,87.4,43.4
				c-28.9,14.2-57.7,28.6-86.6,42.9c-2,0.9-4.2,2.6-4.2,5.1c-0.1,9.3-0.1,18.5,0,27.8c1.4,18.4,16.9,34.6,35.2,36.9
				c3.6,0.3,7.3,0.3,10.9,0.3c54,0,107.9,0,161.9,0c3.9-0.1,7.9,0.1,11.7-1c11.5-2.7,21.5-10.6,27.1-20.9c2.1-3.6,3.1-7.8,4.4-11.7
				c16.6,8.7,33.6,16.7,50.3,25.1c1.5,1.1,3.9,0,3.8-1.9c0-9.6,0-19.2,0-28.7c0-1.9-1.5-3.5-3.3-4.2
				c-46.9-23.2-93.7-46.5-140.6-69.7c47-23.3,93.9-46.6,140.9-69.9c1.8-0.7,3.1-2.6,3-4.5c0-9.6,0.1-19.1,0-28.7
				c0-1.5-2-2.4-3.3-1.7c-17,8.4-34,16.9-51,25.3c-1.3-5.5-3.4-10.9-6.6-15.5c-7-10.3-18.8-17.2-31.3-18.1c-57.9,0-115.8,0-173.7,0
				C122.9,142.2,105.1,158.9,103.3,178.7z"/>
		</g>
		<path class="st1" d="M135.5,178.9c1.7-3.6,5.7-5.9,9.7-5.8c55.9,0,111.9,0,167.8,0c5.1-0.1,9.9,4,10.5,9.1
			c0.2,2.8,0.1,5.6,0.1,8.5c-31.4,15.5-62.7,31.1-94.1,46.7c-31.7-15.6-63.4-31.4-95.1-47.1C134.6,186.4,133.8,182.4,135.5,178.9z"
			/>
		<path class="st1" d="M134.4,319.6c31.6-15.8,63.3-31.4,94.9-47.1c31.5,15.3,62.9,31.1,94.3,46.6c-0.2,4.1,0.8,8.5-1.4,12.2
			c-1.8,3.3-5.5,5.3-9.2,5.3c-56,0-111.9,0-167.9,0c-3.9,0.1-7.9-2.1-9.7-5.6C133.8,327.5,134.6,323.4,134.4,319.6z"/>
	</g>
	<g>
		<g>
			<path d="M103.3,178.7c1.7-19.8,19.6-36.5,39.4-36.9c57.9,0,115.8,0,173.7,0c12.4,0.9,24.2,7.8,31.3,18.1c3.3,4.6,5.4,10,6.6,15.5
				c17-8.4,34-16.9,51-25.3c1.3-0.7,3.2,0.2,3.3,1.7c0.1,9.6,0,19.1,0,28.7c0.1,1.9-1.2,3.7-3,4.5c-47,23.3-93.9,46.5-140.9,69.9
				c46.9,23.2,93.7,46.5,140.6,69.7c1.7,0.7,3.2,2.2,3.3,4.2c0,9.6,0,19.2,0,28.7c0.2,1.9-2.3,3-3.8,1.9
				c-16.8-8.4-33.7-16.5-50.3-25.1c-1.4,3.9-2.3,8-4.4,11.7c-5.6,10.4-15.7,18.2-27.1,20.9c-3.8,1-7.8,0.9-11.7,1
				c-54,0-107.9,0-161.9,0c-3.6,0-7.3,0.1-10.9-0.3c-18.3-2.3-33.8-18.5-35.2-36.9c-0.1-9.3-0.1-18.5,0-27.8c0-2.4,2.2-4.2,4.2-5.1
				c28.9-14.3,57.7-28.7,86.6-42.9c-29.1-14.5-58.3-28.9-87.4-43.4c-1.9-1-3.6-2.9-3.4-5.1C103.3,197.2,103.2,187.9,103.3,178.7z
				 M135.5,178.9c-1.7,3.5-0.9,7.5-1.1,11.3c31.7,15.7,63.4,31.5,95.1,47.1c31.4-15.6,62.7-31.1,94.1-46.7c0-2.8,0.1-5.6-0.1-8.5
				c-0.6-5.1-5.4-9.2-10.5-9.1c-55.9,0-111.9,0-167.8,0C141.2,173,137.3,175.3,135.5,178.9z M134.4,319.6c0.2,3.8-0.7,7.9,1.2,11.5
				c1.8,3.6,5.7,5.8,9.7,5.6c56,0,111.9,0,167.9,0c3.7,0.1,7.4-2,9.2-5.3c2.1-3.7,1.1-8.2,1.4-12.2c-31.4-15.5-62.8-31.3-94.3-46.6
				C197.7,288.2,166,303.8,134.4,319.6z"/>
		</g>
	</g>
</g>
</svg>
