<svg id="Calque_1" data-name="Calque 1" xmlns="http://www.w3.org/2000/svg" viewBox="0 0 512.1 509.7"><defs><style>.cls-1{fill:#fff;}</style></defs><path class="cls-1" d="M512.3,121.1V396.8c0,64.3-52.6,117-117,117H117.2c-64.3,0-117-52.6-117-117V121.1c.1-64.4,52.7-117,117-117H395.3C459.6,4.1,512.3,56.7,512.3,121.1Z" transform="translate(-0.2 -4.1)"/><path d="M395.3,4.1H117.2C52.9,4.1.3,56.7.2,121.1V396.8c0,64.4,52.7,117,117,117H395.3c64.4,0,117-52.7,117-117V121.1C512.3,56.7,459.6,4.1,395.3,4.1Zm112,392.6c0,61.6-50.4,112-112,112H117.2c-61.6,0-112-50.4-112-112V121C5.2,59.4,55.6,9,117.2,9H395.3c61.6,0,112,50.4,112,112.1Z" transform="translate(-0.2 -4.1)"/><path class="cls-1" d="M103.3,178.7c-.1,9.3-.1,18.5-.1,27.8-.2,2.2,1.5,4.1,3.4,5.1Q150.25,233.35,194,255c-28.9,14.2-57.7,28.6-86.6,42.9-2,.9-4.2,2.6-4.2,5.1-.1,9.3-.1,18.5,0,27.8,1.4,18.4,16.9,34.6,35.2,36.9,3.6.3,7.3.3,10.9.3H311.2c3.9-.1,7.9.1,11.7-1A42.38,42.38,0,0,0,350,346.1c2.1-3.6,3.1-7.8,4.4-11.7,16.6,8.7,33.6,16.7,50.3,25.1a2.41,2.41,0,0,0,3.8-1.9V328.9a4.81,4.81,0,0,0-3.3-4.2Q334.85,289.9,264.6,255q70.5-35,140.9-69.9a4.76,4.76,0,0,0,3-4.5c0-9.6.1-19.1,0-28.7,0-1.5-2-2.4-3.3-1.7-17,8.4-34,16.9-51,25.3a45.43,45.43,0,0,0-6.6-15.5,42.05,42.05,0,0,0-31.3-18.1H142.6C122.9,142.2,105.1,158.9,103.3,178.7Z" transform="translate(-0.2 -4.1)"/><path class="cls-1" d="M135.5,178.9a10.59,10.59,0,0,1,9.7-5.8H313a10.65,10.65,0,0,1,10.5,9.1c.2,2.8.1,5.6.1,8.5Q276.5,214,229.5,237.4c-31.7-15.6-63.4-31.4-95.1-47.1C134.6,186.4,133.8,182.4,135.5,178.9Z" transform="translate(-0.2 -4.1)"/><path class="cls-1" d="M134.4,319.6c31.6-15.8,63.3-31.4,94.9-47.1,31.5,15.3,62.9,31.1,94.3,46.6-.2,4.1.8,8.5-1.4,12.2a10.58,10.58,0,0,1-9.2,5.3H145.1a10.81,10.81,0,0,1-9.7-5.6C133.8,327.5,134.6,323.4,134.4,319.6Z" transform="translate(-0.2 -4.1)"/><path d="M103.3,178.7c1.7-19.8,19.6-36.5,39.4-36.9H316.4a42.41,42.41,0,0,1,31.3,18.1,41.84,41.84,0,0,1,6.6,15.5c17-8.4,34-16.9,51-25.3a2.3,2.3,0,0,1,3.3,1.7c.1,9.6,0,19.1,0,28.7a4.86,4.86,0,0,1-3,4.5q-70.5,35-140.9,69.9,70.35,34.8,140.6,69.7a5,5,0,0,1,3.3,4.2v28.7c.2,1.9-2.3,3-3.8,1.9-16.8-8.4-33.7-16.5-50.3-25.1-1.4,3.9-2.3,8-4.4,11.7A42.31,42.31,0,0,1,323,366.9c-3.8,1-7.8.9-11.7,1H149.4a99.2,99.2,0,0,1-10.9-.3c-18.3-2.3-33.8-18.5-35.2-36.9-.1-9.3-.1-18.5,0-27.8,0-2.4,2.2-4.2,4.2-5.1,28.9-14.3,57.7-28.7,86.6-42.9q-43.65-21.75-87.4-43.4c-1.9-1-3.6-2.9-3.4-5.1C103.3,197.2,103.2,187.9,103.3,178.7Zm32.2.2c-1.7,3.5-.9,7.5-1.1,11.3,31.7,15.7,63.4,31.5,95.1,47.1q47.1-23.4,94.1-46.7c0-2.8.1-5.6-.1-8.5A10.65,10.65,0,0,0,313,173H145.2A11,11,0,0,0,135.5,178.9Zm-1.1,140.7c.2,3.8-.7,7.9,1.2,11.5a10.35,10.35,0,0,0,9.7,5.6H313.2a10.38,10.38,0,0,0,9.2-5.3c2.1-3.7,1.1-8.2,1.4-12.2-31.4-15.5-62.8-31.3-94.3-46.6Q181.8,296,134.4,319.6Z" transform="translate(-0.2 -4.1)"/></svg>