<?xml version="1.0" encoding="UTF-8"?>
<svg version="1.1" xmlns="http://www.w3.org/2000/svg" width="1200" height="1200">
<path d="M0 0 C1.53760127 -0.00418336 3.07519858 -0.01011634 4.61278725 -0.01761746 C8.81227633 -0.03309065 13.01139404 -0.02392896 17.21087658 -0.01050565 C21.78937589 -0.0003118 26.3678205 -0.01341705 30.94631195 -0.02347898 C38.96226881 -0.03789688 46.97811782 -0.03750529 54.99407959 -0.02729034 C66.91421036 -0.0121416 78.8342504 -0.01990513 90.75438058 -0.03212357 C112.04541833 -0.05317545 133.33640804 -0.05136538 154.62745035 -0.03980792 C173.25965466 -0.02974349 191.89184138 -0.02711993 210.52404785 -0.0318985 C212.37832693 -0.03235681 212.37832693 -0.03235681 214.2700662 -0.03282438 C219.28821878 -0.03406974 224.30637134 -0.03534335 229.3245239 -0.03666343 C275.72136527 -0.04872325 322.11818139 -0.03843359 368.51501749 -0.01719747 C410.99957119 0.00222723 453.48407445 0.00132563 495.96862793 -0.01811981 C542.95159722 -0.0395549 589.93454444 -0.04803022 636.91751862 -0.03567076 C641.92649841 -0.0343879 646.93547821 -0.03313654 651.94445801 -0.0318985 C653.17778569 -0.03158219 654.41111337 -0.03126588 655.68181461 -0.03093999 C674.30175915 -0.02639116 692.92168415 -0.03170921 711.54162598 -0.04181671 C732.71451266 -0.05325277 753.88734381 -0.05039649 775.06022358 -0.02869374 C786.90818849 -0.0169497 798.75603315 -0.01618027 810.60399494 -0.03127843 C818.52013892 -0.0402532 826.43618657 -0.03465626 834.35231629 -0.01725936 C838.86115079 -0.00775352 843.36974652 -0.00447119 847.87857342 -0.01888329 C851.98725925 -0.0318822 856.09549632 -0.0262047 860.20414996 -0.00616065 C861.67456496 -0.00216008 863.14501783 -0.00472176 864.61540246 -0.0149844 C884.03699488 -0.1408278 900.59536214 5.49668459 915.23425293 18.50336456 C915.8710498 19.05766144 916.50784668 19.61195831 917.16394043 20.18305206 C929.53223077 31.67181953 936.86899717 49.08880575 937.5104264 65.81000292 C937.66365271 72.49839205 937.63940185 79.18655112 937.62193298 85.87624359 C937.62610856 88.4746868 937.6315873 91.07312818 937.63825279 93.67156619 C937.65058524 99.30914 937.651847 104.94663054 937.64570236 110.58421326 C937.63658927 118.96782633 937.64466099 127.35136277 937.6559936 135.73496999 C937.67563924 150.7113499 937.67801194 165.68769516 937.6727984 180.66408488 C937.66823762 193.77220019 937.6688449 206.8803018 937.67463875 219.98841667 C937.67539562 221.74811025 937.6761516 223.50780383 937.67690669 225.26749742 C937.67805191 227.9193463 937.67920179 230.57119517 937.68036594 233.22304404 C937.69106787 257.87118962 937.69579936 282.51933064 937.68789577 307.16747761 C937.68745001 308.560588 937.68745001 308.560588 937.68699525 309.98184203 C937.68454643 317.5234004 937.68193478 325.06495871 937.67931112 332.60651702 C937.66920987 362.01950156 937.67756302 391.432429 937.70080566 420.84540558 C937.72689089 453.90891203 937.73972279 486.97238412 937.73261791 520.03590125 C937.73190188 523.56288921 937.73122749 527.08987718 937.73057747 530.61686516 C937.73040766 531.48526669 937.73023785 532.35366822 937.7300629 533.24838495 C937.72776211 546.34413656 937.73572637 559.43985621 937.74886894 572.53560066 C937.76379325 587.43308675 937.76460587 602.33049805 937.74679803 617.22798256 C937.73724919 625.55866232 937.73864084 633.88916753 937.75603272 642.21983556 C937.76778954 648.44912839 937.75851102 654.67822668 937.74121035 660.90750285 C937.73744759 663.42084049 937.74038018 665.93419932 937.750822 668.44751809 C937.84008036 691.58358653 935.05249535 711.99842085 918.51550293 729.42255402 C904.2454401 743.71956924 886.75545381 750.8818189 866.68242073 751.0351069 C865.27778008 751.02600544 863.87314179 751.01653287 862.46850586 751.00672913 C860.93090459 751.01091249 859.39330728 751.01684547 857.85571861 751.02434659 C853.65622953 751.03981978 849.45711182 751.03065808 845.25762928 751.01723478 C840.67912997 751.00704092 836.10068535 751.02014617 831.52219391 751.03020811 C823.50623705 751.04462601 815.49038804 751.04423441 807.47442627 751.03401947 C795.5542955 751.01887073 783.63425546 751.02663426 771.71412528 751.0388527 C750.42308753 751.05990458 729.13209782 751.05809451 707.84105551 751.04653705 C689.2088512 751.03647262 670.57666448 751.03384905 651.94445801 751.03862762 C650.09017892 751.03908594 650.09017892 751.03908594 648.19843966 751.0395535 C643.18028708 751.04079887 638.16213452 751.04207247 633.14398196 751.04339256 C586.74714059 751.05545238 540.35032447 751.04516271 493.95348836 751.0239266 C451.46893467 751.0045019 408.9844314 751.0054035 366.49987793 751.02484894 C319.51690864 751.04628402 272.53396142 751.05475935 225.55098724 751.04239988 C220.54200745 751.04111702 215.53302765 751.03986566 210.52404785 751.03862762 C209.29072017 751.03831132 208.05739249 751.03799501 206.78669125 751.03766911 C188.16674671 751.03312029 169.54682171 751.03843834 150.92687988 751.04854584 C129.7539932 751.05998189 108.58116204 751.05712561 87.40828228 751.03542286 C75.56031737 751.02367882 63.71247271 751.0229094 51.86451092 751.03800756 C43.94836694 751.04698233 36.03231929 751.04138539 28.11618957 751.02398848 C23.60735507 751.01448265 19.09875934 751.01120032 14.58993244 751.02561241 C10.48124661 751.03861133 6.37300954 751.03293383 2.2643559 751.01288977 C0.7939409 751.00888921 -0.67651197 751.01145088 -2.1468966 751.02171353 C-21.56848902 751.14755693 -38.12685628 745.51004453 -52.76574707 732.50336456 C-53.40254395 731.94906769 -54.03934082 731.39477081 -54.69543457 730.82367706 C-67.06372491 719.33490959 -74.40049131 701.91792338 -75.04192054 685.1967262 C-75.19514685 678.50833708 -75.17089599 671.82017801 -75.15342712 665.13048553 C-75.1576027 662.53204233 -75.16308144 659.93360095 -75.16974694 657.33516294 C-75.18207938 651.69758913 -75.18334114 646.06009859 -75.1771965 640.42251587 C-75.16808341 632.03890279 -75.17615513 623.65536635 -75.18748774 615.27175914 C-75.20713338 600.29537923 -75.20950608 585.31903397 -75.20429254 570.34264425 C-75.19973176 557.23452894 -75.20033904 544.12642733 -75.20613289 531.01831245 C-75.20688976 529.25861887 -75.20764574 527.49892529 -75.20840083 525.73923171 C-75.20954605 523.08738283 -75.21069593 520.43553395 -75.21186008 517.78368508 C-75.22256201 493.13553951 -75.2272935 468.48739849 -75.21938992 443.83925152 C-75.21909274 442.91051126 -75.21879557 441.981771 -75.21848939 441.02488709 C-75.21604057 433.48332872 -75.21342892 425.94177041 -75.21080526 418.4002121 C-75.20070401 388.98722756 -75.20905716 359.57430012 -75.2322998 330.16132355 C-75.25838503 297.09781709 -75.27121694 264.034345 -75.26411206 230.97082788 C-75.26339602 227.44383991 -75.26272163 223.91685194 -75.26207161 220.38986397 C-75.2619018 219.52146244 -75.26173199 218.65306091 -75.26155704 217.75834418 C-75.25925625 204.66259256 -75.26722051 191.56687291 -75.28036308 178.47112846 C-75.29528739 163.57364237 -75.29610001 148.67623108 -75.27829217 133.77874657 C-75.26874333 125.4480668 -75.27013498 117.1175616 -75.28752686 108.78689356 C-75.29928368 102.55760074 -75.29000516 96.32850245 -75.27270449 90.09922627 C-75.26894173 87.58588864 -75.27187432 85.0725298 -75.28231614 82.55921104 C-75.3715745 59.4231426 -72.58398949 39.00830827 -56.04699707 21.58417511 C-40.33064781 5.83814181 -21.82705366 -0.15234329 0 0 Z M-18.76574707 58.50336456 C-18.76574707 59.49336456 -18.76574707 60.48336456 -18.76574707 61.50336456 C-16.68937308 63.57079014 -16.68937308 63.57079014 -13.95324707 65.62836456 C-12.43924316 66.82719269 -12.43924316 66.82719269 -10.89465332 68.05023956 C-9.86211426 68.85977081 -8.8295752 69.66930206 -7.76574707 70.50336456 C-5.96989275 71.95653793 -4.17812006 73.41477195 -2.39074707 74.87836456 C-1.48195801 75.62086456 -0.57316895 76.36336456 0.36315918 77.12836456 C3.45037015 79.68213908 6.49915606 82.27765089 9.54675293 84.87836456 C13.98286335 88.66117606 18.50018455 92.30877994 23.10925293 95.87836456 C28.88170332 100.35332646 34.41183719 105.06159546 39.90515137 109.87348175 C44.08527752 113.52918016 48.34717567 117.0441044 52.71081543 120.47992706 C55.76802824 122.93137634 58.75144562 125.4623268 61.73425293 128.00336456 C65.52314325 131.22979856 69.3328446 134.41263848 73.23425293 137.50336456 C77.71357199 141.05191603 82.06765329 144.73273332 86.41784668 148.43695831 C89.64849605 151.18110989 92.91123347 153.87084265 96.23425293 156.50336456 C100.71357199 160.05191603 105.06765329 163.73273332 109.41784668 167.43695831 C112.64849605 170.18110989 115.91123347 172.87084265 119.23425293 175.50336456 C123.71357199 179.05191603 128.06765329 182.73273332 132.41784668 186.43695831 C135.64849605 189.18110989 138.91123347 191.87084265 142.23425293 194.50336456 C146.71357199 198.05191603 151.06765329 201.73273332 155.41784668 205.43695831 C158.64849605 208.18110989 161.91123347 210.87084265 165.23425293 213.50336456 C169.71357199 217.05191603 174.06765329 220.73273332 178.41784668 224.43695831 C182.43389201 227.84823447 186.52517444 231.14988467 190.65612793 234.42133331 C193.64392461 236.83420548 196.5648149 239.32132536 199.48425293 241.81586456 C203.94064473 245.62080622 208.4759698 249.29134868 213.10925293 252.87836456 C218.88178764 257.3532102 224.41184465 262.06160199 229.90515137 266.87348175 C234.08527752 270.52918016 238.34717567 274.0441044 242.71081543 277.47992706 C245.76802824 279.93137634 248.75144562 282.4623268 251.73425293 285.00336456 C255.52314325 288.22979856 259.3328446 291.41263848 263.23425293 294.50336456 C267.71357199 298.05191603 272.06765329 301.73273332 276.41784668 305.43695831 C279.64849605 308.18110989 282.91123347 310.87084265 286.23425293 313.50336456 C290.71357199 317.05191603 295.06765329 320.73273332 299.41784668 324.43695831 C302.64849605 327.18110989 305.91123347 329.87084265 309.23425293 332.50336456 C313.71357199 336.05191603 318.06765329 339.73273332 322.41784668 343.43695831 C325.64849605 346.18110989 328.91123347 348.87084265 332.23425293 351.50336456 C336.71357199 355.05191603 341.06765329 358.73273332 345.41784668 362.43695831 C349.43470001 365.84892079 353.52564971 369.15243996 357.66003418 372.42133331 C360.07810622 374.37707292 362.44141995 376.38698354 364.79602051 378.41840363 C387.81363392 398.20408003 410.1937519 409.16460049 441.23425293 407.50336456 C461.1823392 405.14240751 477.20617722 395.29451426 492.23425293 382.50336456 C493.31086092 381.59035065 494.38769109 380.67759868 495.46472168 379.76508331 C497.13339285 378.35105499 498.80171721 376.93664427 500.46813965 375.51996613 C504.46319096 372.13087244 508.53393098 368.85037286 512.64050293 365.59711456 C515.71504642 363.11525416 518.72604337 360.56487943 521.73425293 358.00336456 C526.30350607 354.11260841 530.93597865 350.32407535 535.64050293 346.59711456 C538.71504642 344.11525416 541.72604337 341.56487943 544.73425293 339.00336456 C549.30350607 335.11260841 553.93597865 331.32407535 558.64050293 327.59711456 C561.71504642 325.11525416 564.72604337 322.56487943 567.73425293 320.00336456 C572.30350607 316.11260841 576.93597865 312.32407535 581.64050293 308.59711456 C584.71504642 306.11525416 587.72604337 303.56487943 590.73425293 301.00336456 C595.30350607 297.11260841 599.93597865 293.32407535 604.64050293 289.59711456 C607.71504642 287.11525416 610.72604337 284.56487943 613.73425293 282.00336456 C618.30350607 278.11260841 622.93597865 274.32407535 627.64050293 270.59711456 C630.71504642 268.11525416 633.72604337 265.56487943 636.73425293 263.00336456 C641.30350607 259.11260841 645.93597865 255.32407535 650.64050293 251.59711456 C653.71504642 249.11525416 656.72604337 246.56487943 659.73425293 244.00336456 C664.30847482 240.10837748 668.94585333 236.31562941 673.65612793 232.58539581 C676.64392461 230.17252365 679.5648149 227.68540377 682.48425293 225.19086456 C686.94064473 221.38592291 691.4759698 217.71538044 696.10925293 214.12836456 C701.88178764 209.65351893 707.41184465 204.94512713 712.90515137 200.13324738 C717.08527752 196.47754897 721.34717567 192.96262473 725.71081543 189.52680206 C728.76802824 187.07535278 731.75144562 184.54440232 734.73425293 182.00336456 C739.30340712 178.11249595 743.93598351 174.32407151 748.64050293 170.59711456 C751.71504642 168.11525416 754.72604337 165.56487943 757.73425293 163.00336456 C762.30350607 159.11260841 766.93597865 155.32407535 771.64050293 151.59711456 C774.71504642 149.11525416 777.72604337 146.56487943 780.73425293 144.00336456 C785.30350607 140.11260841 789.93597865 136.32407535 794.64050293 132.59711456 C797.71504642 130.11525416 800.72604337 127.56487943 803.73425293 125.00336456 C808.30350607 121.11260841 812.93597865 117.32407535 817.64050293 113.59711456 C820.71504642 111.11525416 823.72604337 108.56487943 826.73425293 106.00336456 C831.30847482 102.10837748 835.94585333 98.31562941 840.65612793 94.58539581 C843.6439288 92.17252027 846.56468777 89.68525879 849.48425293 87.19086456 C854.59429062 82.83181315 859.81406503 78.6396819 865.1126709 74.51264191 C870.56139643 70.26586373 875.90928296 65.90461525 881.23425293 61.50336456 C880.63518152 58.01852234 880.38065968 57.614761 877.35925293 55.31586456 C873.03857604 52.80987197 870.14455225 52.37787866 865.22827703 52.3745634 C863.96217781 52.3712912 862.6960786 52.36801901 861.39161274 52.36464766 C859.97579834 52.36605787 858.55998403 52.36755989 857.14416981 52.36914349 C855.64231707 52.36719148 854.14046485 52.36480299 852.63861343 52.36201552 C848.48259152 52.35559344 844.32658889 52.35545565 840.17056296 52.35629292 C835.66003296 52.35612386 831.14950996 52.35022263 826.63898343 52.34505206 C817.67987754 52.33570948 808.72077659 52.33180123 799.76166643 52.3295331 C789.03588472 52.32657536 778.31010959 52.31788052 767.58433132 52.30911882 C741.65733762 52.28825654 715.73034277 52.2778021 689.80334264 52.26898921 C677.54396152 52.26478553 665.28458089 52.25956319 653.02520018 52.25430468 C611.07983436 52.23641358 569.13446839 52.22141618 527.18909931 52.21398449 C524.55487705 52.21350973 521.92065478 52.21303384 519.28643252 52.21255683 C517.98006476 52.21232045 516.67369701 52.21208408 515.32774236 52.21184054 C508.70876997 52.21063931 502.08979758 52.20942387 495.4708252 52.20819855 C494.15725836 52.2079584 492.84369152 52.20771825 491.49031962 52.20747082 C448.88467799 52.19957483 406.27907495 52.17613729 363.67344487 52.1436426 C318.65361238 52.10936917 273.63379618 52.08963569 228.61395043 52.08634025 C223.67484072 52.08592269 218.73573102 52.08544313 213.79662132 52.08491707 C212.58042778 52.08479388 211.36423425 52.08467069 210.11118636 52.08454376 C190.51296404 52.0822087 170.91477395 52.06653177 151.31656313 52.04607522 C131.62913466 52.02585106 111.94174502 52.02032375 92.25430808 52.02984586 C80.54934072 52.03507402 68.84450236 52.02912142 57.13955348 52.00731118 C49.32724969 51.99385084 41.51503516 51.99483772 33.70273058 52.00771314 C29.24724002 52.01464161 24.79199692 52.0151713 20.33652798 51.99815305 C16.28430513 51.9828007 12.23252967 51.98581509 8.18032039 52.00356333 C6.72246032 52.00671674 5.26456646 52.00314607 3.80674503 51.99207159 C-4.99080447 51.9295864 -12.20992772 51.94754521 -18.76574707 58.50336456 Z M-22.76574707 126.50336456 C-22.76574707 305.69336456 -22.76574707 484.88336456 -22.76574707 669.50336456 C-15.70475835 664.83670558 -15.70475835 664.83670558 -8.92590332 659.87445831 C-8.10025879 659.2389505 -7.27461426 658.60344269 -6.4239502 657.94867706 C-5.13907715 656.95480988 -5.13907715 656.95480988 -3.82824707 655.94086456 C2.78873823 650.85804992 9.44445843 645.85299971 16.23425293 641.00336456 C22.80422419 636.305718 29.26015391 631.4774002 35.67175293 626.56586456 C46.20143315 618.49971764 56.86667885 610.63024935 67.5682373 602.79438019 C76.68789075 596.11272934 85.75465194 589.37244604 94.73425293 582.50336456 C105.24587368 574.46234142 115.89055726 566.61276516 126.5682373 558.79438019 C135.71175648 552.09524375 144.79831315 545.33402141 153.79675293 538.44086456 C160.92336923 532.98159771 168.12615874 527.65622604 175.42810059 522.43451691 C181.25730515 518.2491506 186.97519279 513.92965245 192.67175293 509.56586456 C203.20143315 501.49971764 213.86667885 493.63024935 224.5682373 485.79438019 C233.68789075 479.11272934 242.75465194 472.37244604 251.73425293 465.50336456 C262.24587368 457.46234142 272.89055726 449.61276516 283.5682373 441.79438019 C293.03662255 434.85722576 302.45397286 427.85911845 311.79675293 420.75336456 C313.16356201 419.71526642 313.16356201 419.71526642 314.5579834 418.65619659 C315.40119141 418.01279327 316.24439941 417.36938995 317.11315918 416.70648956 C317.86154053 416.13575714 318.60992187 415.56502472 319.38098145 414.97699738 C321.32418772 413.48901372 321.32418772 413.48901372 323.23425293 411.50336456 C316.42347527 405.25399591 309.42537569 399.30885607 302.23425293 393.50336456 C295.76105143 388.24565505 289.35282176 382.921756 283.00036621 377.51947784 C278.99984439 374.12693085 274.92453113 370.84195585 270.81237793 367.58539581 C267.82458125 365.17252365 264.90369096 362.68540377 261.98425293 360.19086456 C257.52786113 356.38592291 252.99253606 352.71538044 248.35925293 349.12836456 C242.58671822 344.65351893 237.05666121 339.94512713 231.56335449 335.13324738 C227.38322834 331.47754897 223.12133019 327.96262473 218.75769043 324.52680206 C215.70047762 322.07535278 212.71706024 319.54440232 209.73425293 317.00336456 C205.94536261 313.77693056 202.13566126 310.59409064 198.23425293 307.50336456 C193.75493387 303.9548131 189.40085257 300.27399581 185.05065918 296.56977081 C181.82000981 293.82561923 178.55727239 291.13588647 175.23425293 288.50336456 C170.75493387 284.9548131 166.40085257 281.27399581 162.05065918 277.56977081 C158.82000981 274.82561923 155.55727239 272.13588647 152.23425293 269.50336456 C147.75493387 265.9548131 143.40085257 262.27399581 139.05065918 258.56977081 C135.82000981 255.82561923 132.55727239 253.13588647 129.23425293 250.50336456 C124.75493387 246.9548131 120.40085257 243.27399581 116.05065918 239.56977081 C112.82000981 236.82561923 109.55727239 234.13588647 106.23425293 231.50336456 C101.75493387 227.9548131 97.40085257 224.27399581 93.05065918 220.56977081 C89.03461385 217.15849466 84.94333142 213.85684446 80.81237793 210.58539581 C77.82458125 208.17252365 74.90369096 205.68540377 71.98425293 203.19086456 C67.52786113 199.38592291 62.99253606 195.71538044 58.35925293 192.12836456 C52.58671822 187.65351893 47.05666121 182.94512713 41.56335449 178.13324738 C37.38322834 174.47754897 33.12133019 170.96262473 28.75769043 167.52680206 C25.70047762 165.07535278 22.71706024 162.54440232 19.73425293 160.00336456 C15.94536261 156.77693056 12.13566126 153.59409064 8.23425293 150.50336456 C4.33281484 147.41261491 0.52364264 144.22924352 -3.26574707 141.00336456 C-7.279465 137.5935325 -11.3048592 134.20187103 -15.39074707 130.87836456 C-16.1667627 130.24672394 -16.94277832 129.61508331 -17.74230957 128.96430206 C-19.79844745 127.32638039 -19.79844745 127.32638039 -22.76574707 126.50336456 Z M879.29675293 129.94086456 C874.63245184 134.17643433 869.80814521 138.16494639 864.91687012 142.13422394 C861.55444689 144.87021777 858.2068113 147.62421841 854.85925293 150.37836456 C854.13020752 150.97810089 853.40116211 151.57783722 852.65002441 152.19574738 C847.62821859 156.33483791 842.65121554 160.52313274 837.69567871 164.74115753 C833.80230569 168.04629667 829.83068658 171.23865739 825.82800293 174.40961456 C822.75345944 176.89147497 819.74246249 179.4418497 816.73425293 182.00336456 C812.16003104 185.89835165 807.52265253 189.69109972 802.81237793 193.42133331 C799.82458125 195.83420548 796.90369096 198.32132536 793.98425293 200.81586456 C789.52786113 204.62080622 784.99253606 208.29134868 780.35925293 211.87836456 C774.58671822 216.3532102 769.05666121 221.06160199 763.56335449 225.87348175 C759.38322834 229.52918016 755.12133019 233.0441044 750.75769043 236.47992706 C747.70047762 238.93137634 744.71706024 241.4623268 741.73425293 244.00336456 C737.16509874 247.89423318 732.53252235 251.68265762 727.82800293 255.40961456 C724.75345944 257.89147497 721.74246249 260.4418497 718.73425293 263.00336456 C714.16499979 266.89412072 709.53252721 270.68265377 704.82800293 274.40961456 C701.75345944 276.89147497 698.74246249 279.4418497 695.73425293 282.00336456 C691.16499979 285.89412072 686.53252721 289.68265377 681.82800293 293.40961456 C678.75345944 295.89147497 675.74246249 298.4418497 672.73425293 301.00336456 C668.16499979 304.89412072 663.53252721 308.68265377 658.82800293 312.40961456 C655.75345944 314.89147497 652.74246249 317.4418497 649.73425293 320.00336456 C645.16499979 323.89412072 640.53252721 327.68265377 635.82800293 331.40961456 C632.75345944 333.89147497 629.74246249 336.4418497 626.73425293 339.00336456 C622.16003104 342.89835165 617.52265253 346.69109972 612.81237793 350.42133331 C609.82458125 352.83420548 606.90369096 355.32132536 603.98425293 357.81586456 C599.52786113 361.62080622 594.99253606 365.29134868 590.35925293 368.87836456 C584.58671822 373.3532102 579.05666121 378.06160199 573.56335449 382.87348175 C569.38815152 386.52487463 565.13127724 390.03576682 560.77331543 393.46820831 C556.54704421 396.85572725 552.436545 400.37957786 548.31237793 403.89008331 C545.30465531 406.45011354 542.27221355 408.97931045 539.23425293 411.50336456 C543.00467687 415.63866824 547.47593485 418.73501314 551.98425293 422.00336456 C553.70864185 423.26319208 555.43259371 424.52361801 557.15612793 425.78461456 C558.01528809 426.412388 558.87444824 427.04016144 559.75964355 427.68695831 C563.27193851 430.26504379 566.75499566 432.88095585 570.23425293 435.50336456 C575.93370359 439.7945477 581.66918371 444.03370985 587.42175293 448.25336456 C594.27316591 453.28127667 601.05124032 458.39687991 607.79675293 463.56586456 C614.20828093 468.47752053 620.6645728 473.30530486 627.23425293 478.00336456 C634.71686643 483.35427424 642.04086603 488.89342406 649.34313965 494.48725128 C658.21988456 501.2788001 667.21670904 507.90056046 676.23425293 514.50336456 C687.03515736 522.41197659 697.76071929 530.40388951 708.39343262 538.53754425 C717.2570293 545.30712031 726.2358807 551.91459828 735.23425293 558.50336456 C746.06367762 566.43285963 756.81286837 574.4498967 767.46813965 582.61225128 C772.99487658 586.83305813 778.57780088 590.95836558 784.23425293 595.00336456 C791.71686643 600.35427424 799.04086603 605.89342406 806.34313965 611.48725128 C815.21988456 618.2788001 824.21670904 624.90056046 833.23425293 631.50336456 C843.30205274 638.87518451 853.32055813 646.29999741 863.23425293 653.87836456 C873.63618242 663.47930054 873.63618242 663.47930054 885.23425293 669.50336456 C885.23425293 490.31336456 885.23425293 311.12336456 885.23425293 126.50336456 C882.31025262 126.50336456 881.41983417 127.97135159 879.29675293 129.94086456 Z M362.67175293 447.07367706 C361.96711914 447.63329132 361.26248535 448.19290558 360.53649902 448.76947784 C359.77675781 449.38291046 359.0170166 449.99634308 358.23425293 450.62836456 C356.6030901 451.92211387 354.97022326 453.21371714 353.33581543 454.50336456 C352.07172852 455.50109894 352.07172852 455.50109894 350.78210449 456.51898956 C346.78210757 459.63435704 342.70136743 462.63558656 338.60925293 465.62836456 C337.01280933 466.79751329 335.41645429 467.96678295 333.82019043 469.13617706 C333.04900879 469.7011087 332.27782715 470.26604034 331.48327637 470.84809113 C328.04882388 473.37583623 324.64064641 475.93799788 321.23425293 478.50336456 C315.53461591 482.79430269 309.79932542 487.03370745 304.04675293 491.25336456 C297.19533995 496.28127667 290.41726554 501.39687991 283.67175293 506.56586456 C276.5452319 512.02525264 269.34234316 517.35050592 262.04040527 522.57221222 C256.21120071 526.75757853 250.49331306 531.07707668 244.79675293 535.44086456 C234.2670727 543.50701149 223.60182701 551.37647977 212.90026855 559.21234894 C203.78061511 565.89399979 194.71385392 572.63428308 185.73425293 579.50336456 C175.22263218 587.54438771 164.5779486 595.39396397 153.90026855 603.21234894 C144.75674938 609.91148538 135.67019271 616.67270772 126.67175293 623.56586456 C119.54513663 629.02513141 112.34234712 634.35050308 105.04040527 639.57221222 C99.21120071 643.75757853 93.49331306 648.07707668 87.79675293 652.44086456 C78.81152793 659.32389837 69.73824003 666.07483164 60.60778809 672.76361847 C54.18236926 677.4733011 47.76998558 682.20075992 41.36120605 686.93305206 C39.98806669 687.94682988 38.61440602 688.95990215 37.2401123 689.97211456 C35.50652173 691.25007034 33.77606548 692.53212881 32.04675293 693.81586456 C30.6332959 694.86193878 30.6332959 694.86193878 29.19128418 695.92914581 C28.54546387 696.448638 27.89964355 696.96813019 27.23425293 697.50336456 C27.23425293 697.83336456 27.23425293 698.16336456 27.23425293 698.50336456 C293.87425293 698.50336456 560.51425293 698.50336456 835.23425293 698.50336456 C830.90888557 694.16867496 830.90888557 694.16867496 826.25769043 690.44477081 C825.51470703 689.9015921 824.77172363 689.35841339 824.00622559 688.79877472 C822.81972412 687.94098419 822.81972412 687.94098419 821.60925293 687.06586456 C819.89567481 685.8146124 818.18213417 684.56330891 816.46862793 683.31195831 C815.59657715 682.67757843 814.72452637 682.04319855 813.8260498 681.38959503 C809.82878285 678.48050644 805.84200246 675.5572882 801.85925293 672.62836456 C801.08251221 672.05747101 800.30577148 671.48657745 799.50549316 670.89838409 C792.60758488 665.81199775 785.80378821 660.60616521 779.00036621 655.39447784 C773.47362928 651.173671 767.89070498 647.04836355 762.23425293 643.00336456 C754.75163943 637.65245489 747.42763983 632.11330507 740.12536621 626.51947784 C731.2486213 619.72792902 722.25179682 613.10616867 713.23425293 606.50336456 C702.4333485 598.59475254 691.70778657 590.60283962 681.07507324 582.46918488 C672.21147655 575.69960882 663.23262516 569.09213084 654.23425293 562.50336456 C643.40482824 554.5738695 632.65563749 546.55683243 622.00036621 538.39447784 C616.47362928 534.173671 610.89070498 530.04836355 605.23425293 526.00336456 C597.75163943 520.65245489 590.42763983 515.11330507 583.12536621 509.51947784 C574.2486213 502.72792902 565.25179682 496.10616867 556.23425293 489.50336456 C546.33456354 482.25463802 536.48055359 474.9575776 526.73425293 467.50336456 C519.73681667 462.15950113 512.72986149 456.82944629 505.67175293 451.56586456 C504.88026855 450.96838409 504.08878418 450.37090363 503.27331543 449.75531769 C502.53726074 449.20939972 501.80120605 448.66348175 501.04284668 448.10102081 C500.40145752 447.62157013 499.76006836 447.14211945 499.09924316 446.64813995 C497.08638682 445.41260083 495.57450771 444.81177474 493.23425293 444.50336456 C490.76637986 445.45618846 488.47713741 446.47073858 486.10925293 447.62836456 C480.17854526 450.37190059 474.2864232 452.58286889 467.98425293 454.31586456 C467.28928711 454.5100296 466.59432129 454.70419464 465.8782959 454.90424347 C454.54075643 457.91086919 443.44847299 458.91269881 431.73425293 458.87836456 C431.03282166 458.87782074 430.33139038 458.87727692 429.60870361 458.87671661 C409.40890329 458.80498233 388.91232952 455.01541841 370.98718262 445.27289581 C367.3099636 443.65860691 365.55241903 444.75305696 362.67175293 447.07367706 Z " fill="#070506" transform="translate(168.7657470703125,224.49663543701172)"/>
</svg>
