<?xml version="1.0" encoding="UTF-8"?>
<svg version="1.1" xmlns="http://www.w3.org/2000/svg" width="254" height="254">
<path d="M0 0 C1.85929375 -0.00067658 3.71858741 -0.00164952 5.57788086 -0.00289917 C9.44353084 -0.00435952 13.30915746 -0.00227583 17.17480469 0.00244141 C22.07579917 0.00813763 26.97673884 0.00484961 31.87773132 -0.00113106 C35.7078084 -0.00478203 39.53787294 -0.00357749 43.36795044 -0.00100327 C45.1728618 -0.00034647 46.97777439 -0.00111754 48.78268433 -0.00348282 C57.79944175 -0.01271226 66.79137979 0.08668613 75.796875 0.56689453 C76.51009415 0.60404509 77.22331329 0.64119564 77.95814514 0.67947197 C96.63863024 1.79307175 112.6765666 6.81758164 127.0625 19.1328125 C128.06023437 19.96232422 128.06023437 19.96232422 129.078125 20.80859375 C144.46866049 34.77793114 148.88393232 56.10319482 149.96857071 75.91716766 C150.31186819 84.0150175 150.22755645 92.13098486 150.23046875 100.234375 C150.23369151 102.3636375 150.2370563 104.4928998 150.24055481 106.62216187 C150.24651076 111.06826286 150.2483984 115.51434452 150.24780273 119.96044922 C150.24770138 125.60125673 150.26134184 131.24193761 150.27857494 136.88271523 C150.28980437 141.27733914 150.29171861 145.6719335 150.29119301 150.06657028 C150.29235717 152.14335948 150.2966886 154.22014985 150.30452538 156.29692459 C150.39553088 182.90481547 150.16753294 211.85197117 130.25390625 232.03515625 C129.53074219 232.72738281 128.80757812 233.41960937 128.0625 234.1328125 C127.47339844 234.75285156 126.88429687 235.37289062 126.27734375 236.01171875 C106.58811553 255.35476273 76.12194568 254.45439107 50.5625 254.3984375 C48.34830686 254.3997898 46.13411401 254.40173499 43.91992188 254.40423584 C39.31116876 254.40716057 34.70249391 254.40297583 30.09375 254.39355469 C24.24110682 254.38216189 18.38864722 254.38873572 12.53601074 254.40069962 C7.97329369 254.40799046 3.41061884 254.40559745 -1.15209961 254.40044403 C-3.30786156 254.39912742 -5.46362758 254.40068385 -7.61938477 254.40540314 C-17.91312195 254.42300269 -28.12705772 254.30366517 -38.375 253.25683594 C-39.11979614 253.18148746 -39.86459229 253.10613899 -40.63195801 253.02850723 C-60.21650491 250.76635974 -76.99374225 241.60180065 -89.3125 226.1953125 C-107.79757408 199.33758722 -104.26878996 164.23798379 -104.19824219 133.20898438 C-104.18684846 128.14976275 -104.19361742 123.09075149 -104.20512009 118.03153706 C-104.34887515 43.69789091 -104.34887515 43.69789091 -82.9375 21.1328125 C-68.36942789 6.88391568 -49.72305489 1.64826614 -29.74609375 0.57861328 C-28.96689072 0.53650286 -28.18768768 0.49439243 -27.38487244 0.45100594 C-18.25800133 -0.00256427 -9.1359992 -0.01197246 0 0 Z M-34.41015625 25.03613281 C-35.18091492 25.11514706 -35.95167358 25.1941613 -36.74578857 25.27556992 C-46.24426801 26.36596972 -54.14883032 29.63598126 -61.9375 35.1328125 C-62.783125 35.6896875 -63.62875 36.2465625 -64.5 36.8203125 C-77.79827796 49.43662748 -79.64090164 66.90940201 -80.12341309 84.31933594 C-80.22276292 89.96547938 -80.21626589 95.61100172 -80.203125 101.2578125 C-80.20447735 103.34130905 -80.20642257 105.42480529 -80.20892334 107.50830078 C-80.21184786 111.84475755 -80.20766404 116.18113114 -80.19824219 120.51757812 C-80.18684939 126.02396267 -80.19342334 131.53015211 -80.20538712 137.03652954 C-80.21267855 141.32984843 -80.21028469 145.62312249 -80.20513153 149.91644287 C-80.20381508 151.94464136 -80.20537076 153.97284417 -80.21009064 156.0010376 C-80.49530702 188.97544266 -80.49530702 188.97544266 -65.09375 217.1328125 C-52.67980915 228.93623167 -35.68309394 230.28594944 -19.4074707 230.27807617 C-18.39476608 230.28143478 -17.38206146 230.2847934 -16.33866882 230.28825378 C-13.01352691 230.29769887 -9.68843572 230.29970375 -6.36328125 230.30078125 C-4.0331368 230.30399866 -1.70299255 230.30736309 0.62715149 230.31086731 C5.50493843 230.31684274 10.3827077 230.31870888 15.26049805 230.31811523 C21.47935219 230.31801379 27.69809172 230.33165531 33.91691875 230.34888744 C38.72907522 230.36006306 43.54120447 230.36203273 48.35337257 230.36150551 C50.64445197 230.36267766 52.93553226 230.36705597 55.22659874 230.37483788 C85.9610138 230.63706559 85.9610138 230.63706559 112.22265625 216.1328125 C124.79146533 202.97667589 126.21637341 186.03332709 126.20776367 168.6887207 C126.21112228 167.69698349 126.2144809 166.70524628 126.21794128 165.68345642 C126.22737123 162.43348914 126.22939045 159.18357383 126.23046875 155.93359375 C126.23368715 153.65211466 126.23705165 151.37063577 126.24055481 149.0891571 C126.24652642 144.31569948 126.24839677 139.54225992 126.24780273 134.76879883 C126.24770129 128.68795427 126.26134379 122.60722694 126.27857494 116.5264101 C126.28975938 111.81543967 126.29171996 107.10449698 126.29119301 102.39351463 C126.2923638 100.15350122 126.29673425 97.91348688 126.30452538 95.67348671 C126.8098854 66.12546397 126.8098854 66.12546397 114.12890625 40.1953125 C97.71432736 23.81176306 75.87436441 23.88816622 54.06542969 23.85491943 C52.14778544 23.85850043 50.23014211 23.8626027 48.3125 23.8671875 C46.2776688 23.86583461 44.24283792 23.86388894 42.20800781 23.86138916 C37.97587967 23.85846719 33.74383685 23.86263998 29.51171875 23.87207031 C24.14334312 23.88346295 18.77516764 23.87688759 13.40679932 23.86492538 C9.21466622 23.85762689 5.02257897 23.86003095 0.83044434 23.86518097 C-1.14668808 23.8664955 -3.12382495 23.86494888 -5.10095215 23.86022186 C-14.9194789 23.84188678 -24.636809 24.03052653 -34.41015625 25.03613281 Z " fill="#000000" transform="translate(103.9375,-0.1328125)"/>
<path d="M0 0 C2.26087172 1.69856229 4.40265733 3.47035918 6.52734375 5.3359375 C7.20410156 5.91859375 7.88085938 6.50125 8.578125 7.1015625 C21.16602573 18.73620473 27.36328352 34.50183566 28.52734375 51.3359375 C28.71302 71.05888138 22.21896541 88.11771501 8.52734375 102.3359375 C-4.44263809 113.87086532 -21.36021851 121.39752654 -39.015625 120.62109375 C-59.43134884 118.25170132 -75.83761771 111.28804141 -89.47265625 95.3359375 C-101.86546105 78.32788125 -104.31572255 60.25528617 -102.08203125 39.75 C-98.50948111 23.0322974 -87.20001331 8.0128826 -73 -1.20703125 C-68.61921227 -3.73258585 -64.18448381 -5.83168512 -59.47265625 -7.6640625 C-58.69148438 -7.98503906 -57.9103125 -8.30601563 -57.10546875 -8.63671875 C-38.38973214 -15.06464746 -16.07259018 -10.81662467 0 0 Z M-69.18359375 27.140625 C-76.66511582 36.29314692 -80.18907148 47.38703151 -79.25 59.1171875 C-77.45402379 71.53209103 -70.98789991 81.56898962 -61.0546875 89.19140625 C-51.40163978 95.40680264 -40.56311204 98.08442428 -29.2734375 95.64453125 C-22.11813773 93.65833306 -16.24255855 91.01760676 -10.47265625 86.3359375 C-9.84746094 85.83449219 -9.22226563 85.33304687 -8.578125 84.81640625 C0.11762547 77.0300153 3.91009731 65.86634403 4.83984375 54.5234375 C4.39332359 42.02087297 -0.74616828 31.503981 -9.78515625 22.9609375 C-20.34190547 14.15762094 -30.88508889 12.4583138 -44.24169922 13.11376953 C-54.01597817 14.08713283 -62.58839688 20.18404748 -69.18359375 27.140625 Z " fill="#000000" transform="translate(164.47265625,72.6640625)"/>
<path d="M0 0 C3.51520834 2.3707219 5.79390381 5.02530762 7.6875 8.8125 C8.20863171 14.04090334 8.33023534 18.45286754 6.0625 23.25 C1.73315669 27.92113357 -1.39126026 30.05111982 -7.8125 30.3125 C-12.71207754 30.12610303 -15.58791458 29.16462688 -19.3125 25.8125 C-23.04434027 21.56592314 -23.67535286 17.65920074 -23.5859375 12.16015625 C-23.06057916 7.64957968 -21.20459411 4.46930779 -17.8046875 1.4921875 C-12.1523169 -2.2672962 -6.25831539 -2.24354703 0 0 Z " fill="#000000" transform="translate(202.3125,45.1875)"/>
</svg>
