<?xml version="1.0" encoding="UTF-8"?>
<svg version="1.1" xmlns="http://www.w3.org/2000/svg" width="252" height="251">
<path d="M0 0 C13.78051809 11.04565612 18.00374195 29.23193045 19.87840271 45.94804382 C20.91353928 57.41082394 20.71492904 68.89585434 20.6875 80.39453125 C20.68563178 82.70765655 20.68420978 85.02078224 20.68321228 87.33390808 C20.67941894 93.38197956 20.66961631 99.4300265 20.6585083 105.47808838 C20.64641299 112.75623315 20.64187677 120.03438618 20.63605499 127.31253815 C20.62640248 138.33337576 20.60722373 149.35415968 20.58984375 160.375 C3.09984375 160.375 -14.39015625 160.375 -32.41015625 160.375 C-32.44753906 153.60742188 -32.48492187 146.83984375 -32.5234375 139.8671875 C-32.55374661 135.55596509 -32.58491376 131.2447825 -32.61914062 126.93359375 C-32.67327519 120.10467645 -32.724392 113.2758379 -32.7565918 106.44677734 C-32.78277906 100.93529144 -32.82328854 95.42407304 -32.87334251 89.91275406 C-32.88990758 87.81987993 -32.90148586 85.72695964 -32.90777016 83.63402939 C-32.49583514 61.34193052 -32.49583514 61.34193052 -41.66015625 41.6875 C-48.3555989 36.05724141 -54.97820991 35.75619212 -63.453125 36.03125 C-70.367241 36.63188397 -75.88182628 38.38852656 -80.78515625 43.4375 C-87.50489924 52.27025 -88.54517938 63.16768431 -88.61547852 73.86865234 C-88.62537811 74.80587128 -88.63527771 75.74309021 -88.64547729 76.70870972 C-88.67695203 79.79276034 -88.70179407 82.87682634 -88.7265625 85.9609375 C-88.74714415 88.10470978 -88.76814093 90.24847811 -88.78953552 92.39224243 C-88.84463114 98.0244425 -88.89409545 103.65667843 -88.94238281 109.28894043 C-89.00153998 116.05217903 -89.06769892 122.81535234 -89.1326828 129.57853699 C-89.23053485 139.84398465 -89.31949866 150.10947492 -89.41015625 160.375 C-106.90015625 160.375 -124.39015625 160.375 -142.41015625 160.375 C-142.41015625 104.935 -142.41015625 49.495 -142.41015625 -7.625 C-125.58015625 -7.625 -108.75015625 -7.625 -91.41015625 -7.625 C-90.91515625 1.78 -90.91515625 1.78 -90.41015625 11.375 C-88.94578125 9.68375 -87.48140625 7.9925 -85.97265625 6.25 C-64.4636769 -17.64186774 -25.529998 -17.21309428 0 0 Z " fill="#000000" transform="translate(231.41015625,90.625)"/>
<path d="M0 0 C17.49 0 34.98 0 53 0 C53 55.44 53 110.88 53 168 C35.51 168 18.02 168 0 168 C0 112.56 0 57.12 0 0 Z " fill="#000000" transform="translate(4,83)"/>
<path d="M0 0 C6.06257833 4.8764217 11.47283768 10.43785627 12.875 18.3125 C13.77746988 28.38632004 13.53205922 37.38814369 7.109375 45.55859375 C1.69342108 51.36901675 -5.03379775 55.90864651 -13.12890625 56.55078125 C-24.11593071 56.77992885 -32.21484029 55.0322654 -40.3671875 47.375 C-46.18762793 40.54568323 -48.49328045 32.60891918 -48.33203125 23.76953125 C-47.60291867 15.11647822 -44.21218156 8.46043187 -38.125 2.3125 C-26.66337833 -6.91984751 -12.57025134 -6.78793572 0 0 Z " fill="#000000" transform="translate(48.125,4.6875)"/>
</svg>
