<?xml version="1.0" encoding="UTF-8"?>
<svg version="1.1" xmlns="http://www.w3.org/2000/svg" width="216" height="267">
<path d="M0 0 C29.25207879 -0.76037514 58.21937441 9.4496423 79.53125 29.6640625 C100.522446 51.71507459 107.65535875 76.79240606 107.2421875 106.8515625 C106.95065905 116.28129304 105.51766636 125.12467619 102.9296875 134.18359375 C102.61620361 135.28767578 102.61620361 135.28767578 102.29638672 136.4140625 C97.65416167 152.13155855 89.95569015 166.03039752 78.9296875 178.18359375 C78.38054687 178.81394531 77.83140625 179.44429687 77.265625 180.09375 C63.72910873 194.73052498 43.54381805 203.33468728 23.85546875 204.4609375 C8.99101182 204.98067376 -4.83271511 201.39959138 -16.0703125 191.18359375 C-17.42178388 189.86864863 -18.76143792 188.54094517 -20.0703125 187.18359375 C-20.17118164 187.8065332 -20.27205078 188.42947266 -20.37597656 189.07128906 C-21.75595937 197.14316304 -23.70065897 205.02757577 -25.8203125 212.93359375 C-25.99871674 213.59922333 -26.17712097 214.26485291 -26.3609314 214.95065308 C-28.97764071 224.65114436 -31.64218484 234.12759015 -36.0703125 243.18359375 C-36.48748535 244.03872559 -36.9046582 244.89385742 -37.33447266 245.77490234 C-38.7659156 248.672943 -40.22337103 251.55592271 -41.6953125 254.43359375 C-42.16300049 255.35277588 -42.63068848 256.27195801 -43.11254883 257.21899414 C-43.56525146 258.07871826 -44.0179541 258.93844238 -44.484375 259.82421875 C-45.08693115 260.97712402 -45.08693115 260.97712402 -45.70166016 262.15332031 C-47.25641065 264.45965372 -48.70152241 265.73584332 -51.0703125 267.18359375 C-55.27868166 267.71920437 -57.32837822 267.65133493 -60.9453125 265.37109375 C-65.41959848 260.76521112 -64.49905451 254.18983109 -64.7578125 248.12109375 C-64.81775391 247.04537109 -64.87769531 245.96964844 -64.93945312 244.86132812 C-65.60296436 229.32789388 -63.01080509 214.50374862 -59.30956459 199.49353981 C-58.66451676 196.87570373 -58.03414884 194.25467717 -57.4070282 191.63249207 C-55.85125365 185.13903973 -54.27323918 178.65104875 -52.69274902 172.16357422 C-51.34675637 166.63626599 -50.01086648 161.10671722 -48.68901634 155.5735836 C-48.0702082 153.00140243 -47.43667775 150.43314426 -46.80256653 147.86470032 C-46.42400805 146.28604167 -46.04617644 144.70720849 -45.66918945 143.12817383 C-45.49107224 142.42420975 -45.31295502 141.72024567 -45.12944031 140.99494934 C-44.05663492 136.40905521 -44.15217356 132.78524421 -45.0703125 128.18359375 C-45.31910156 126.91902344 -45.56789062 125.65445313 -45.82421875 124.3515625 C-46.02313721 123.37968994 -46.02313721 123.37968994 -46.22607422 122.38818359 C-49.53940284 105.95677839 -48.28341546 90.79557897 -38.91796875 76.4140625 C-34.60737388 70.68111646 -28.20119044 66.83140575 -21.20703125 65.40234375 C-13.87094395 64.65130008 -8.02743699 65.86175834 -2.0703125 70.18359375 C2.59299168 74.58644743 4.60459057 79.2200786 5.30078125 85.56640625 C5.54722557 99.45426877 1.92235834 111.82444304 -2.18359375 125.00390625 C-2.72790039 126.77254028 -2.72790039 126.77254028 -3.28320312 128.5769043 C-3.99646969 130.87585873 -4.72723656 133.16948435 -5.47851562 135.45629883 C-8.22668187 144.2460791 -10.44652313 154.18606775 -6.1328125 162.80859375 C-5.111875 164.47921875 -5.111875 164.47921875 -4.0703125 166.18359375 C-3.7403125 167.17359375 -3.4103125 168.16359375 -3.0703125 169.18359375 C-1.32163767 170.26790469 -1.32163767 170.26790469 0.9296875 171.18359375 C2.38375 171.95703125 2.38375 171.95703125 3.8671875 172.74609375 C12.79519741 176.93679228 21.6206159 175.54107751 30.72265625 172.5 C45.36980451 166.48771137 53.96410332 154.15868177 60.10888672 140.15576172 C69.31205452 118.04297485 70.38797486 91.82931214 61.4921875 69.58984375 C54.10420358 53.25103315 41.72266 42.7120293 25.06640625 36.25 C4.13417455 29.13356257 -18.19810932 30.46890947 -38.0703125 40.18359375 C-56.16446583 49.44672001 -67.51788859 64.49110489 -74.171875 83.296875 C-78.84412258 100.13006604 -77.29496728 118.83852483 -69.4375 134.421875 C-67.07917334 138.54154717 -67.07917334 138.54154717 -64.0703125 142.18359375 C-63.70049411 148.88655198 -64.62458296 154.35673862 -66.5703125 160.74609375 C-66.80878906 161.56400391 -67.04726562 162.38191406 -67.29296875 163.22460938 C-67.87469251 165.21410464 -68.47096809 167.19933564 -69.0703125 169.18359375 C-72.15389685 170.14305435 -73.62588252 170.37011967 -76.6484375 169.1015625 C-94.60282396 157.47320987 -103.61857746 139.87322836 -108.1796875 119.48046875 C-113.0270792 94.15512457 -107.07009865 67.71131682 -93.1953125 46.2421875 C-76.29962484 21.92357824 -51.89454786 7.62043315 -23.0703125 2.18359375 C-15.41320888 1.00557781 -7.72697217 0.46204541 0 0 Z " fill="#000000" transform="translate(109.0703125,-0.18359375)"/>
</svg>
