<?xml version="1.0" encoding="UTF-8"?>
<svg version="1.1" xmlns="http://www.w3.org/2000/svg" width="266" height="250">
<path d="M0 0 C13.88525648 11.86904115 22.54626887 26.6363397 24 45 C24.13428839 48.58468513 24.14202096 52.16313651 24.125 55.75 C24.12306641 56.74265869 24.12113281 57.73531738 24.11914062 58.75805664 C24.06330024 68.52314381 23.59772877 78.25488629 23 88 C28.3166346 89.92175583 31.11615052 90.09462332 36.375 88.0625 C41.9344914 86.1773851 46.3208953 85.15429097 52 87 C55.20882717 88.87181585 56.59374868 90.00976242 58 93.4375 C58 96.84151033 56.99505966 98.25944034 55 101 C52.50390625 102.625 52.50390625 102.625 49.5625 104 C48.5003125 104.50402344 47.438125 105.00804688 46.34375 105.52734375 C43.10998158 106.95156185 39.84880737 108.26505934 36.5625 109.5625 C31.95487203 111.45018004 28.93727871 112.94858109 26 117 C24.18369848 123.00081938 26.4845191 127.51364942 29 133 C41.83199302 156.29849239 60.05347118 169.10026587 85 177 C85.375 179.1875 85.375 179.1875 85 182 C76.21496257 191.47859302 62.05932137 192.67232811 50 195 C47.525 202.92 47.525 202.92 45 211 C34.28571429 211.13392857 34.28571429 211.13392857 30 210.5 C12.59068856 208.093835 -0.13437567 213.61295946 -14.125 223.625 C-27.22106947 232.97933533 -40.83736602 236.12044159 -56.875 234.5625 C-69.25288728 232.47416371 -79.65526441 225.43355194 -89.82983398 218.45141602 C-101.9241729 210.19356666 -113.83953339 208.39322709 -128.25 211.0625 C-129.18328125 211.25972656 -130.1165625 211.45695313 -131.078125 211.66015625 C-134 212 -134 212 -141 211 C-143.475 203.08 -143.475 203.08 -146 195 C-147.23234375 194.76925781 -148.4646875 194.53851563 -149.734375 194.30078125 C-173.204819 189.74532641 -173.204819 189.74532641 -179.37890625 183.65234375 C-181 181 -181 181 -180.75 178.1875 C-180.5025 177.465625 -180.255 176.74375 -180 176 C-178.96101562 175.69707031 -177.92203125 175.39414063 -176.8515625 175.08203125 C-164.14791227 171.30267242 -154.08319705 166.85191556 -144 158 C-143.32195312 157.41734375 -142.64390625 156.8346875 -141.9453125 156.234375 C-133.0644637 148.03118133 -124.50550156 135.60838223 -121 124 C-120.85675161 119.55929981 -121.36633319 117.85148978 -124 114.3125 C-128.61746279 110.75320577 -133.66298132 108.89976704 -139.07421875 106.81640625 C-149.99770451 102.50344324 -149.99770451 102.50344324 -153 98 C-153.625 94.4375 -153.625 94.4375 -153 91 C-149.48573177 86.95326689 -146.20941212 86.3794577 -141 86 C-137.39557723 86.836741 -134.00213003 87.99927731 -130.5 89.1875 C-126.60992712 90.09055263 -123.87821424 89.85320713 -120 89 C-118.75937249 87.99257897 -118.75937249 87.99257897 -118.97827148 85.93725586 C-119.02540283 85.03885986 -119.07253418 84.14046387 -119.12109375 83.21484375 C-119.16967529 82.21702881 -119.21825684 81.21921387 -119.26831055 80.19116211 C-119.32414307 79.11745361 -119.37997559 78.04374512 -119.4375 76.9375 C-121.25191163 37.32138523 -121.25191163 37.32138523 -114 23 C-113.52820313 22.04609375 -113.05640625 21.0921875 -112.5703125 20.109375 C-104.04148405 4.19433626 -89.97432997 -6.34879014 -73 -12 C-48.29534303 -19.08693501 -20.73173565 -15.68245906 0 0 Z " fill="#000000" transform="translate(181,15)"/>
</svg>
