<?xml version="1.0" encoding="UTF-8"?>
<svg version="1.1" xmlns="http://www.w3.org/2000/svg" width="222" height="254">
<path d="M0 0 C14.52 0 29.04 0 44 0 C45.98 8.91 45.98 8.91 48 18 C49.19885978 21.1491698 50.22437644 23.7521068 51.8125 26.625 C52.15796875 27.27976318 52.5034375 27.93452637 52.859375 28.60913086 C55.627704 33.69010468 58.77625515 38.01975264 63 42 C63.88751953 42.89912109 63.88751953 42.89912109 64.79296875 43.81640625 C75.79414337 54.31855851 90.57681214 57.79484714 105 61 C105 75.19 105 89.38 105 104 C84.78192953 104 69.55123483 100.29161238 52.03125 90.79296875 C51.3496582 90.42635132 50.66806641 90.05973389 49.96582031 89.68200684 C48.30920806 88.79048787 46.65440823 87.89560238 45 87 C45.00222061 87.94530579 45.00444122 88.89061157 45.00672913 89.86456299 C45.02718556 98.86461069 45.04207887 107.86465354 45.05181217 116.86471939 C45.05698468 121.48941279 45.06397714 126.11408711 45.07543945 130.73876953 C45.08647211 135.21920707 45.09231897 139.6996265 45.09487724 144.1800766 C45.09669543 145.87169428 45.10024347 147.5633112 45.10573006 149.25492096 C45.13418335 158.40917923 45.00916527 167.54076008 44.59155273 176.68652344 C44.55741052 177.49704288 44.5232683 178.30756233 44.48809147 179.14264297 C43.59073676 196.71018868 36.91679763 213.92599268 25 227 C23.90945312 228.22783203 23.90945312 228.22783203 22.796875 229.48046875 C7.585426 245.69783615 -13.9988928 253.78483739 -35.94311523 254.52587891 C-58.84384894 254.79472997 -77.16179178 246.50872707 -93.625 230.4375 C-109.69503553 213.58356029 -117.57949335 193.41556402 -117.41723633 170.30078125 C-116.80639766 147.73250826 -106.40990788 127.71160823 -90.25 112.1875 C-72.90297536 97.39230684 -51.50364785 91.30274173 -29 93 C-27.515 93.495 -27.515 93.495 -26 94 C-26 108.52 -26 123.04 -26 138 C-29.3 138 -32.6 138 -36 138 C-46.8699379 138.76604666 -55.82528336 142.30008799 -63.4375 150.25 C-70.50806932 159.00472957 -72.22220888 168.00131305 -71.27490234 179.05322266 C-70.1544931 186.98763054 -66.12091862 194.79721918 -60 200 C-50.48001754 206.79323251 -41.67294162 209.1142971 -30 208 C-23.60718834 206.42413537 -18.29941249 203.84207406 -13 200 C-12.01 199.67 -11.02 199.34 -10 199 C-8.99083967 197.23408113 -8.99083967 197.23408113 -8 195 C-7.360625 194.13375 -6.72125 193.2675 -6.0625 192.375 C-0.16554841 182.72544285 -0.55628137 172.37080028 -0.56762695 161.43310547 C-0.55859821 159.66809915 -0.54826828 157.90309908 -0.53674316 156.1381073 C-0.50927761 151.37230574 -0.49990289 146.6066235 -0.49388909 141.84075308 C-0.48447814 136.85058502 -0.4582726 131.86050513 -0.43388367 126.87039185 C-0.39028969 117.43238716 -0.36169914 107.99439966 -0.33856028 98.55632508 C-0.31147048 87.80654904 -0.26756133 77.05686201 -0.22227156 66.30714965 C-0.12952697 44.20480184 -0.06001959 22.10246258 0 0 Z " fill="#000000" transform="translate(117,0)"/>
</svg>
