<?xml version="1.0" encoding="UTF-8"?>
<svg version="1.1" xmlns="http://www.w3.org/2000/svg" width="239" height="240">
<path d="M0 0 C20.9736082 19.35714514 36.28699709 47.16597942 37.69238281 76.03076172 C38.75996006 110.1354064 31.62021981 139.20266022 9.52832031 165.66113281 C8.9340625 166.4075 8.33980469 167.15386719 7.72753906 167.92285156 C-9.43720526 188.7745338 -38.27627479 203.27946155 -64.98730469 206.45019531 C-88.91301089 208.4816232 -113.42932677 206.556488 -134.61621094 194.38378906 C-142.17236221 192.4714936 -151.88179344 196.7402485 -159.24511719 198.70019531 C-161.47295525 199.28623366 -163.70082062 199.87216816 -165.92871094 200.45800781 C-169.40524704 201.37587256 -172.8813517 202.29532531 -176.35693359 203.21679688 C-179.73523796 204.11129105 -183.1150665 204.9998267 -186.49511719 205.88769531 C-187.53679047 206.16578033 -188.57846375 206.44386536 -189.65170288 206.7303772 C-190.62016144 206.98419159 -191.58862 207.23800598 -192.58642578 207.49951172 C-193.43562592 207.72442291 -194.28482605 207.94933411 -195.15975952 208.18106079 C-197.47167969 208.66113281 -197.47167969 208.66113281 -201.47167969 208.66113281 C-199.44600697 199.29821294 -197.0668253 190.14320001 -194.17480469 181.00878906 C-193.31292284 178.19682711 -192.45713703 175.38308339 -191.60351562 172.56860352 C-191.01421512 170.66740784 -190.40467441 168.77237162 -189.77539062 166.8840332 C-186.28187422 156.3260729 -183.92224834 148.21300194 -188.96386719 137.82910156 C-190.07514014 135.76288692 -191.22714185 133.72783383 -192.40437317 131.69857788 C-204.60300911 108.41187419 -202.88608262 76.26592354 -195.57275391 51.79541016 C-190.6257192 36.40204796 -182.85465615 22.98485254 -172.47167969 10.66113281 C-171.72660156 9.74074219 -170.98152344 8.82035156 -170.21386719 7.87207031 C-152.20407425 -13.31233019 -126.54232966 -25.68826835 -99.47167969 -30.33886719 C-98.73433594 -30.47035156 -97.99699219 -30.60183594 -97.23730469 -30.73730469 C-61.90571534 -35.80423804 -26.10610247 -23.75014365 0 0 Z M-157.47167969 25.66113281 C-173.55806516 45.25843575 -181.30097114 70.44388113 -179.47167969 95.66113281 C-178.26520707 107.18876698 -176.47736495 121.93514661 -168.83105469 130.95800781 C-165.24083306 135.42517689 -162.11512167 139.52938731 -162.63562012 145.56085205 C-164.09312648 154.78912907 -166.99797949 163.82568575 -169.98324585 172.65943909 C-171.37131889 176.18387346 -171.37131889 176.18387346 -170.47167969 179.66113281 C-168.97386963 179.23646729 -168.97386963 179.23646729 -167.44580078 178.80322266 C-163.72682404 177.753659 -160.00194189 176.72658065 -156.27490234 175.70605469 C-154.66514012 175.2619377 -153.05702478 174.81180452 -151.45068359 174.35546875 C-149.13627258 173.69912185 -146.81672716 173.06491094 -144.49511719 172.43457031 C-143.7823764 172.22738373 -143.06963562 172.02019714 -142.33529663 171.80673218 C-134.97302389 169.85496203 -130.55631794 172.51841203 -124.15917969 175.97363281 C-118.76941165 178.77528487 -113.36560484 180.84070586 -107.53417969 182.53613281 C-106.83703857 182.73891846 -106.13989746 182.9417041 -105.42163086 183.15063477 C-79.2965523 190.3893609 -52.70442536 184.50179319 -29.53027344 171.56738281 C-24.42611475 168.38624688 -19.92564569 164.69027941 -15.47167969 160.66113281 C-14.18970703 159.50291016 -14.18970703 159.50291016 -12.88183594 158.32128906 C4.04099908 142.23286193 16.08944583 118.73213385 16.73144531 95.13378906 C17.10492628 64.85346476 8.76428463 39.81062487 -12.22167969 17.47363281 C-31.92627395 -1.24573174 -57.48339708 -10.84102846 -84.53808594 -10.54980469 C-113.76001593 -8.98278957 -137.85894487 4.1718709 -157.47167969 25.66113281 Z " fill="#000000" transform="translate(201.4716796875,31.3388671875)"/>
<path d="M0 0 C1.13308594 -0.06058594 2.26617187 -0.12117188 3.43359375 -0.18359375 C6.5625 0.4375 6.5625 0.4375 8.671875 2.78125 C11.29329581 7.45205744 13.33021876 12.43262216 15.375 17.375 C15.79458984 18.33857422 16.21417969 19.30214844 16.64648438 20.29492188 C18.88652666 25.69390353 20.40039865 29.62358954 18.5625 35.4375 C16.96875 37.94921875 16.96875 37.94921875 15.0625 40.125 C11.69610565 43.79741094 11.69610565 43.79741094 10.5625 48.4375 C19.54264002 65.66518966 35.36078405 78.19221597 53.5625 84.4375 C56.08966721 81.99185431 58.4410507 79.58823334 60.65234375 76.84375 C61.40644531 75.9259375 62.16054687 75.008125 62.9375 74.0625 C63.64648438 73.16789062 64.35546875 72.27328125 65.0859375 71.3515625 C67.5625 69.4375 67.5625 69.4375 70.61328125 69.30859375 C76.18107379 70.55054747 81.29248602 73.3703422 86.375 75.875 C87.42365234 76.37837891 88.47230469 76.88175781 89.55273438 77.40039062 C97.27402491 81.14902491 97.27402491 81.14902491 99.5625 83.4375 C100.22825055 91.0270563 98.57510973 97.12643238 94.625 103.625 C88.3782199 110.44313194 78.82029337 113.07489356 69.9375 113.6875 C50.16285281 113.31368814 29.07461297 101.03106244 14.5625 88.4375 C13.78132813 87.7775 13.00015625 87.1175 12.1953125 86.4375 C7.17695305 82.11191071 2.71059455 77.60046817 -1.4375 72.4375 C-2.10918213 71.60968018 -2.10918213 71.60968018 -2.79443359 70.76513672 C-13.51205713 57.44231698 -22.98896546 43.32428351 -22.4375 25.5625 C-21.39005056 15.99990278 -16.85057986 7.532699 -9.4375 1.4375 C-6.1527381 0.34257937 -3.45740682 0.12950559 0 0 Z " fill="#000000" transform="translate(81.4375,63.5625)"/>
</svg>
