<?xml version="1.0" encoding="UTF-8"?>
<svg version="1.1" xmlns="http://www.w3.org/2000/svg" width="254" height="179">
<path d="M0 0 C1.59868927 0.05880844 1.59868927 0.05880844 3.22967529 0.11880493 C40.75482775 1.54365775 40.75482775 1.54365775 51.625 11.25 C73.46615284 35.14679076 65.81710244 89.44151162 64.5 119.390625 C62.42828259 156.24132952 62.42828259 156.24132952 50.125 168 C30.04894832 183.71330012 -8.38200963 178.28272963 -32.3984375 178.2578125 C-34.7494813 178.2584892 -37.10052504 178.25946224 -39.4515686 178.26071167 C-44.34076616 178.26217203 -49.22994524 178.26008868 -54.11914062 178.25537109 C-60.30957198 178.24968127 -66.49995987 178.25295886 -72.69038963 178.25894356 C-77.53470167 178.26259997 -82.37900382 178.26138747 -87.22331619 178.25881577 C-89.50250885 178.25816012 -91.78170249 178.25892573 -94.06089401 178.26129532 C-163.78981437 178.31790954 -163.78981437 178.31790954 -176.4765625 166.01953125 C-193.01451181 147.70696181 -189.51789762 116.69778897 -189.44824219 93.73754883 C-189.43685868 89.95141501 -189.44362007 86.16556258 -189.45511246 82.3794384 C-189.60020354 26.27418083 -189.60020354 26.27418083 -177.91015625 12.73046875 C-168.3033704 3.77720575 -158.02170304 1.7172467 -145.25 1 C-143.32740356 0.88325928 -143.32740356 0.88325928 -141.3659668 0.76416016 C-137.30767612 0.52520272 -133.24804337 0.32138902 -129.1875 0.125 C-127.40182617 0.03605469 -127.40182617 0.03605469 -125.58007812 -0.0546875 C-83.85141455 -1.99233689 -41.73336457 -1.5963603 0 0 Z M-88.1875 52.125 C-88.1875 74.565 -88.1875 97.005 -88.1875 120.125 C-84.3745926 118.85403087 -81.29851551 117.80367636 -77.82885742 116.02124023 C-77.02328903 115.60998398 -76.21772064 115.19872772 -75.38774109 114.77500916 C-74.10332878 114.11100853 -74.10332878 114.11100853 -72.79296875 113.43359375 C-71.43453606 112.7373867 -71.43453606 112.7373867 -70.04866028 112.02711487 C-67.15538765 110.5428682 -64.26523441 109.05265261 -61.375 107.5625 C-59.47479658 106.58752567 -57.57440757 105.61291298 -55.67382812 104.63867188 C-44.46615182 98.88583119 -33.30431796 93.0514452 -22.1875 87.125 C-24.67477667 84.29735362 -27.37973508 82.82387234 -30.71875 81.12109375 C-31.83024414 80.5502002 -32.94173828 79.97930664 -34.08691406 79.39111328 C-35.2871 78.78155707 -36.48729552 78.17201971 -37.6875 77.5625 C-38.91668307 76.93279589 -40.14552199 76.30241958 -41.37402344 75.67138672 C-43.83239248 74.40879714 -46.2918193 73.14830715 -48.75195312 71.88916016 C-53.32935653 69.5386544 -57.88673017 67.15156905 -62.4375 64.75 C-63.18700928 64.35562744 -63.93651855 63.96125488 -64.70874023 63.55493164 C-68.35407803 61.63376732 -71.98951509 59.6959441 -75.61328125 57.734375 C-76.66177246 57.16855713 -76.66177246 57.16855713 -77.73144531 56.59130859 C-79.03883744 55.88448194 -80.34431192 55.17409195 -81.64746094 54.45947266 C-84.73953031 52.68298122 -84.73953031 52.68298122 -88.1875 52.125 Z " fill="#000000" transform="translate(189.1875,0.875)"/>
</svg>
